<svg width="161" height="160" viewBox="0 0 161 160" fill="none" xmlns="http://www.w3.org/2000/svg">
<path d="M7.66817 27.8313C6.5684 28.9328 5.22649 29.7621 3.74942 30.2531C5.22596 30.7453 6.56763 31.5745 7.66817 32.675C8.76871 33.7755 9.5979 35.1172 10.09 36.5938C10.5824 35.1173 11.4116 33.7757 12.5121 32.6752C13.6126 31.5747 14.9542 30.7455 16.4307 30.2531C14.9541 29.761 13.6125 28.9318 12.5119 27.8313C11.4114 26.7307 10.5822 25.389 10.09 23.9125C9.59902 25.3896 8.76969 26.7315 7.66817 27.8313Z" fill="#B0B5CA"/>
<path d="M9.5619 61.175C7.2869 79.1937 14.34 96.2562 26.9838 107.584L65.2588 83.8219L65.2681 83.7937C61.6398 82.7966 58.493 80.524 56.4055 77.3932C54.318 74.2625 53.4301 70.4837 53.9046 66.7509C54.3792 63.0181 56.1845 59.5817 58.989 57.0729C61.7934 54.5641 65.4088 53.1512 69.1713 53.0937L34.1463 22.7375C27.4531 26.9187 21.7744 32.5373 17.5222 39.1856C13.27 45.8339 10.5508 53.3453 9.5619 61.175Z" fill="#7F8A98"/>
<path d="M20.7525 129.397V140.016C20.7524 140.749 20.8967 141.474 21.1772 142.152C21.4576 142.829 21.8687 143.444 22.387 143.962C22.9053 144.481 23.5206 144.892 24.1978 145.172C24.875 145.453 25.6008 145.597 26.3338 145.597H35.9431V123.816H26.3338C24.8536 123.816 23.4343 124.404 22.3877 125.451C21.3411 126.497 20.7529 127.917 20.7525 129.397Z" fill="#ED6337"/>
<path d="M26.9838 114.316V123.816H35.9431H99.7494H108.959V114.316H26.9838Z" fill="#71C3D7"/>
<path d="M26.9838 107.584V114.316H108.959V104.85C108.936 99.7966 110.007 94.798 112.096 90.1969C114.236 85.5364 115.687 80.59 116.406 75.5125C116.465 75.1188 116.518 74.7219 116.565 74.3219C116.918 71.3775 117.013 68.4079 116.849 65.4469C115.487 40.2188 95.6338 18.1313 69.6838 14.8844C58.3739 13.4485 46.8997 15.6298 36.9057 21.1156C35.9682 21.6313 35.0484 22.1719 34.1463 22.7375L69.1713 53.0938C69.9556 53.0782 70.7399 53.12 71.5182 53.2188C73.6535 53.492 75.7094 54.2029 77.5574 55.3071C79.4054 56.4112 81.0057 57.8848 82.2582 59.6357C83.5107 61.3866 84.3883 63.3771 84.8364 65.4827C85.2844 67.5882 85.2931 69.7636 84.862 71.8727C84.4308 73.9819 83.5691 75.9793 82.3307 77.7402C81.0924 79.501 79.5039 80.9874 77.6648 82.1063C75.8257 83.2253 73.7756 83.9526 71.6425 84.243C69.5094 84.5333 67.3394 84.3804 65.2682 83.7938L65.2588 83.8219L26.9838 107.584Z" fill="#E5F5FD"/>
<path d="M35.9431 123.816V145.597H99.7494V123.816H35.9431Z" fill="#E5F5FD"/>
<path d="M53.9026 66.7656C53.4844 69.8645 53.9964 73.0178 55.3734 75.8253C56.7504 78.6328 58.9304 80.9679 61.6368 82.5343C64.3432 84.1007 67.4539 84.8277 70.5742 84.6232C73.6945 84.4187 76.6837 83.2919 79.1625 81.3856C81.6413 79.4794 83.4979 76.8797 84.4967 73.9165C85.4955 70.9533 85.5915 67.7602 84.7724 64.7424C83.9534 61.7245 82.2563 59.0181 79.8965 56.9664C77.5367 54.9147 74.6206 53.6103 71.5182 53.2187C70.74 53.12 69.9556 53.0782 69.1713 53.0937C65.4101 53.1642 61.7993 54.5834 58.9968 57.0928C56.1942 59.6023 54.3864 63.035 53.9026 66.7656Z" fill="#A6B7D0"/>
<path d="M99.7493 123.816V145.597H109.359C110.092 145.597 110.818 145.453 111.495 145.173C112.172 144.892 112.788 144.481 113.306 143.963C113.824 143.445 114.235 142.829 114.516 142.152C114.796 141.475 114.94 140.749 114.94 140.016V129.397C114.94 128.664 114.796 127.938 114.515 127.261C114.235 126.584 113.824 125.968 113.305 125.45C112.787 124.932 112.172 124.521 111.495 124.24C110.817 123.96 110.092 123.816 109.359 123.816H99.7493Z" fill="#ED6337"/>
<path d="M111.653 18.3219C110.552 19.423 109.211 20.2523 107.734 20.7438C109.21 21.2359 110.552 22.0651 111.653 23.1656C112.753 24.2662 113.582 25.6078 114.074 27.0844C114.567 25.6079 115.396 24.2664 116.496 23.1658C117.597 22.0653 118.939 21.2361 120.415 20.7438C118.938 20.2516 117.597 19.4224 116.496 18.3219C115.396 17.2214 114.567 15.8797 114.074 14.4031C113.583 15.88 112.754 17.2218 111.653 18.3219Z" fill="#B0B5CA"/>
<path d="M121.281 129.634H114.94V139.778H121.281V129.634Z" fill="#49BDFF"/>
<path d="M116.406 75.5125L116.927 75.5906C118.065 75.5896 119.193 75.8016 120.252 76.2156L120.34 75.9906L124.834 67.1344C122.348 66.0159 119.653 65.4396 116.927 65.4437L116.849 65.4469C117.013 68.4078 116.918 71.3774 116.565 74.3219C116.518 74.7219 116.465 75.1188 116.406 75.5125Z" fill="#3090FC"/>
<path d="M120.34 75.9907L120.253 76.2157C120.959 76.4864 121.628 76.8466 122.243 77.2875L122.284 77.2313L130.593 71.4125L130.743 71.2657C129.05 69.5306 127.045 68.1292 124.834 67.1344L120.34 75.9907Z" fill="#49BDFF"/>
<path d="M127.621 129.634H121.281V139.778H127.621V129.634Z" fill="#3090FC"/>
<path d="M122.284 77.2312L122.243 77.2875C123.096 77.8901 123.838 78.6354 124.437 79.4906L134.253 77.3719L134.746 77.2625C133.799 75.0309 132.441 72.9968 130.743 71.2656L130.593 71.4125L122.284 77.2312Z" fill="#3090FC"/>
<path d="M134.253 77.3719L124.437 79.4906C125.535 81.037 126.124 82.8875 126.121 84.7844H136.268C136.27 82.2004 135.753 79.6424 134.746 77.2625L134.253 77.3719Z" fill="#49BDFF"/>
<path d="M126.121 97.4656V104.516C126.121 104.556 126.121 104.6 126.124 104.641L126.465 104.634L136.268 103.641V97.4656H126.121Z" fill="#3090FC"/>
<path d="M126.121 91.125V97.4656H126.44H136.268V91.125H126.44H126.121Z" fill="#49BDFF"/>
<path d="M126.121 84.7844V91.125H126.44H136.268V84.7844H126.44H126.121Z" fill="#3090FC"/>
<path d="M126.465 104.634L126.124 104.641C126.146 108.182 127.343 111.616 129.527 114.403L129.821 114.178L137.818 108.516C136.82 107.423 136.267 105.996 136.268 104.516V103.641L126.465 104.634Z" fill="#49BDFF"/>
<path d="M133.962 129.634H127.621V139.778H133.962V129.634Z" fill="#49BDFF"/>
<path d="M129.821 114.178L129.528 114.403C131.422 116.83 133.97 118.665 136.871 119.694L137.053 119.188L142.918 110.913L142.934 110.481C142.696 110.469 142.456 110.463 142.215 110.463C141.387 110.463 140.568 110.289 139.811 109.954C139.053 109.619 138.375 109.129 137.818 108.516L129.821 114.178Z" fill="#3090FC"/>
<path d="M140.302 129.634H133.962V139.778H140.302V129.634Z" fill="#3090FC"/>
<path d="M137.053 119.188L136.871 119.694C138.588 120.299 140.395 120.608 142.215 120.606C142.635 120.605 143.053 120.664 143.456 120.781L143.493 120.647L151.062 113.894L151.537 113.813C149.105 111.801 146.086 110.632 142.934 110.481L142.918 110.913L137.053 119.188Z" fill="#49BDFF"/>
<path d="M140.303 129.634V139.778H142.215C144.62 139.781 146.988 139.188 149.109 138.053L148.903 137.662L144.574 128.969C143.865 129.405 143.048 129.636 142.215 129.634H140.303Z" fill="#49BDFF"/>
<path d="M143.493 120.647L143.456 120.781C144.091 120.964 144.678 121.283 145.177 121.717C145.675 122.151 146.072 122.689 146.34 123.294L146.471 123.234L156.237 120.837C155.39 118.087 153.756 115.645 151.537 113.812L151.062 113.894L143.493 120.647Z" fill="#3090FC"/>
<path d="M144.574 128.969L148.903 137.663L149.109 138.053C151.965 136.525 154.239 134.097 155.578 131.147L155.103 130.994L146.665 125.884C146.556 126.518 146.313 127.12 145.953 127.652C145.592 128.184 145.122 128.633 144.574 128.969Z" fill="#3090FC"/>
<path d="M146.471 123.234L146.34 123.294C146.704 124.106 146.817 125.008 146.665 125.884L155.102 130.994L155.577 131.147C156.435 129.254 156.878 127.2 156.874 125.122C156.875 123.67 156.66 122.226 156.237 120.838L146.471 123.234Z" fill="#49BDFF"/>
<path d="M62.4868 67.85C62.2979 69.2498 62.5292 70.6741 63.1511 71.9422C63.7731 73.2103 64.7578 74.2651 65.9802 74.9726C67.2027 75.6802 68.6077 76.0086 70.0172 75.9162C71.4266 75.8238 72.7768 75.3148 73.8964 74.4538C75.016 73.5927 75.8546 72.4185 76.3057 71.08C76.7568 69.7415 76.8002 68.2992 76.4302 66.9361C76.0602 65.573 75.2936 64.3505 74.2276 63.4239C73.1617 62.4972 71.8444 61.9081 70.4431 61.7313C69.5189 61.6105 68.58 61.673 67.6799 61.9151C66.7799 62.1573 65.9363 62.5743 65.1975 63.1425C64.4587 63.7107 63.839 64.4189 63.3739 65.2267C62.9088 66.0344 62.6074 66.9258 62.4868 67.85Z" fill="#50A6EA"/>
<path d="M49.0963 139.394C46.5075 139.394 44.4088 137.295 44.4088 134.706C44.4088 132.117 46.5075 130.019 49.0963 130.019C51.6851 130.019 53.7838 132.117 53.7838 134.706C53.7838 137.295 51.6851 139.394 49.0963 139.394Z" fill="#ED6337"/>
<path d="M67.8463 139.394C65.2575 139.394 63.1588 137.295 63.1588 134.706C63.1588 132.117 65.2575 130.019 67.8463 130.019C70.4351 130.019 72.5338 132.117 72.5338 134.706C72.5338 137.295 70.4351 139.394 67.8463 139.394Z" fill="#ED6337"/>
<path d="M86.5962 139.394C84.0074 139.394 81.9087 137.295 81.9087 134.706C81.9087 132.117 84.0074 130.019 86.5962 130.019C89.185 130.019 91.2837 132.117 91.2837 134.706C91.2837 137.295 89.185 139.394 86.5962 139.394Z" fill="#ED6337"/>
<path d="M108.959 114.316V123.816H99.7494H99.5837V114.316H108.959Z" fill="#AEDEEA"/>
<path d="M102.721 90.1969C104.861 85.5364 106.312 80.59 107.031 75.5125C107.09 75.1188 107.143 74.7219 107.19 74.3219C107.543 71.3775 107.638 68.4079 107.474 65.4469C106.112 40.2188 86.2588 18.1313 60.3088 14.8844C59.6053 14.7965 58.9035 14.7226 58.2035 14.6628C62.0274 14.3328 65.8755 14.407 69.6838 14.8844C95.6338 18.1313 115.487 40.2188 116.849 65.4469C117.013 68.4079 116.918 71.3775 116.565 74.3219C116.518 74.7219 116.465 75.1188 116.406 75.5125C115.687 80.59 114.236 85.5364 112.096 90.1969C110.007 94.798 108.936 99.7966 108.959 104.85V114.316H99.5838V104.85C99.5613 99.7966 100.632 94.798 102.721 90.1969Z" fill="#A6B7D0"/>
<path d="M105.565 140.016V129.397C105.565 128.664 105.421 127.938 105.14 127.261C104.86 126.584 104.449 125.968 103.93 125.45C103.412 124.932 102.797 124.521 102.12 124.24C101.442 123.96 100.717 123.816 99.9837 123.816H109.359C110.092 123.816 110.817 123.96 111.495 124.24C112.172 124.521 112.787 124.932 113.305 125.45C113.824 125.968 114.235 126.584 114.515 127.261C114.796 127.938 114.94 128.664 114.94 129.397V140.016C114.94 140.749 114.796 141.475 114.516 142.152C114.235 142.829 113.824 143.445 113.306 143.963C112.788 144.481 112.172 144.892 111.495 145.173C110.818 145.453 110.092 145.597 109.359 145.597H99.9837C100.717 145.597 101.443 145.453 102.12 145.173C102.797 144.892 103.413 144.481 103.931 143.963C104.449 143.445 104.86 142.829 105.141 142.152C105.421 141.475 105.565 140.749 105.565 140.016Z" fill="#C24E38"/>
<path d="M121.009 22.5225C119.81 22.9252 118.721 23.6002 117.826 24.4946C116.932 25.3889 116.257 26.4783 115.854 27.6772C115.73 28.0506 115.491 28.3754 115.172 28.6056C114.853 28.8358 114.469 28.9596 114.075 28.9596C113.682 28.9596 113.298 28.8358 112.979 28.6056C112.66 28.3754 112.421 28.0506 112.297 27.6772C111.894 26.4781 111.218 25.3886 110.324 24.4942C109.429 23.5999 108.34 22.925 107.14 22.5225C106.767 22.398 106.442 22.1593 106.212 21.84C105.982 21.5208 105.858 21.1373 105.858 20.7438C105.858 20.3502 105.982 19.9667 106.212 19.6475C106.442 19.3282 106.767 19.0895 107.14 18.965C108.34 18.5622 109.429 17.8871 110.324 16.9925C111.219 16.0978 111.894 15.0081 112.297 13.8088C112.421 13.4353 112.66 13.1105 112.979 12.8803C113.298 12.6502 113.682 12.5263 114.075 12.5263C114.469 12.5263 114.853 12.6502 115.172 12.8803C115.491 13.1105 115.73 13.4353 115.854 13.8088C116.257 15.0081 116.932 16.0978 117.827 16.9925C118.722 17.8871 119.811 18.5622 121.011 18.965C121.384 19.0895 121.709 19.3282 121.939 19.6475C122.169 19.9667 122.293 20.3502 122.293 20.7438C122.293 21.1373 122.169 21.5208 121.939 21.84C121.709 22.1593 121.384 22.398 121.011 22.5225H121.009ZM114.075 18.3766C113.4 19.272 112.604 20.0688 111.708 20.7438C112.604 21.4185 113.401 22.2151 114.075 23.1106C114.75 22.2152 115.547 21.4186 116.442 20.7438C115.547 20.0687 114.75 19.2719 114.075 18.3766Z" fill="#284268"/>
<path d="M3.15561 28.4756C4.35503 28.073 5.44483 27.3979 6.33946 26.5032C7.23409 25.6086 7.90922 24.5188 8.31186 23.3194C8.43632 22.9461 8.67508 22.6214 8.99432 22.3913C9.31356 22.1612 9.69709 22.0374 10.0906 22.0374C10.4841 22.0374 10.8677 22.1612 11.1869 22.3913C11.5061 22.6214 11.7449 22.9461 11.8694 23.3194C12.2718 24.5187 12.9467 25.6083 13.8411 26.503C14.7354 27.3976 15.8249 28.0728 17.0241 28.4756C17.3974 28.6001 17.7221 28.8389 17.9521 29.1581C18.1822 29.4773 18.306 29.8609 18.306 30.2544C18.306 30.6479 18.1822 31.0314 17.9521 31.3507C17.7221 31.6699 17.3974 31.9087 17.0241 32.0331C15.8251 32.4359 14.7357 33.1109 13.8413 34.0051C12.9469 34.8994 12.2717 35.9886 11.8687 37.1875C11.7443 37.5608 11.5055 37.8855 11.1863 38.1156C10.867 38.3457 10.4835 38.4695 10.09 38.4695C9.69648 38.4695 9.31293 38.3457 8.99369 38.1156C8.67445 37.8855 8.43569 37.5608 8.31123 37.1875C7.9084 35.9882 7.23321 34.8985 6.3386 34.0039C5.444 33.1093 4.3543 32.4341 3.15498 32.0313C2.78167 31.9068 2.45697 31.668 2.22689 31.3488C1.99681 31.0296 1.873 30.646 1.873 30.2525C1.873 29.859 1.99681 29.4755 2.22689 29.1562C2.45697 28.837 2.78167 28.5982 3.15498 28.4738L3.15561 28.4756ZM10.09 32.6219C10.7648 31.7262 11.5616 30.9293 12.4572 30.2544C11.5615 29.5798 10.7647 28.7831 10.09 27.8875C9.41517 28.783 8.61838 29.5797 7.7228 30.2544C8.6184 30.9293 9.41518 31.7262 10.09 32.6219Z" fill="#284268"/>
<path d="M19.4959 54.2966C19.5698 54.0617 19.6892 53.8436 19.8473 53.6549C20.0055 53.4661 20.1992 53.3103 20.4176 53.1965C20.8585 52.9665 21.3728 52.9211 21.8472 53.0703C22.3216 53.2195 22.7173 53.551 22.9473 53.992C23.1772 54.4329 23.2226 54.9472 23.0734 55.4216C21.4813 60.5009 20.8789 65.8386 21.299 71.145C21.3388 71.6406 21.18 72.1317 20.8577 72.5103C20.5354 72.8888 20.0759 73.1239 19.5803 73.1637C19.5294 73.1678 19.4787 73.17 19.4284 73.17C18.9574 73.1695 18.5039 72.9917 18.158 72.672C17.8121 72.3523 17.5991 71.9142 17.5615 71.4447C17.1025 65.6578 17.7593 59.8366 19.4962 54.2975L19.4959 54.2966Z" fill="#284268"/>
<path d="M23.1125 45.9063C24.0205 44.2814 25.0284 42.7143 26.1303 41.2141C26.4265 40.818 26.8671 40.5549 27.3563 40.4822C27.8455 40.4095 28.3436 40.533 28.7421 40.8259C29.1407 41.1187 29.4074 41.5571 29.4842 42.0457C29.561 42.5343 29.4417 43.0334 29.1522 43.4344C28.1423 44.8094 27.2185 46.2457 26.3862 47.735C26.2672 47.9518 26.1064 48.1429 25.9131 48.2974C25.7198 48.4518 25.4979 48.5664 25.2602 48.6347C25.0224 48.7029 24.7735 48.7235 24.5277 48.6951C24.282 48.6667 24.0443 48.59 23.8284 48.4694C23.6124 48.3487 23.4224 48.1866 23.2694 47.9922C23.1164 47.7978 23.0034 47.5751 22.9369 47.3368C22.8703 47.0986 22.8516 46.8495 22.8817 46.604C22.9119 46.3585 22.9903 46.1213 23.1125 45.9063Z" fill="#284268"/>
<path d="M129.304 52.8147C129.061 52.8519 128.813 52.8408 128.573 52.782C128.334 52.7231 128.109 52.6177 127.911 52.4717C127.712 52.3258 127.545 52.1421 127.417 51.9313C127.29 51.7205 127.206 51.4866 127.169 51.2431C126.636 47.759 125.743 44.3394 124.505 41.0394C123.237 37.6625 121.625 34.4246 119.696 31.3766C119.561 31.1685 119.469 30.9356 119.424 30.6915C119.38 30.4474 119.384 30.1969 119.437 29.9545C119.49 29.7122 119.591 29.4827 119.733 29.2795C119.876 29.0763 120.057 28.9034 120.267 28.7707C120.476 28.6381 120.71 28.5484 120.955 28.5069C121.199 28.4653 121.45 28.4727 121.692 28.5287C121.933 28.5846 122.161 28.688 122.363 28.8328C122.564 28.9776 122.735 29.1609 122.865 29.3722C124.932 32.6373 126.658 36.1059 128.016 39.7234C129.345 43.2668 130.303 46.9383 130.874 50.6791C130.949 51.1704 130.826 51.6714 130.531 52.0719C130.237 52.4723 129.796 52.7395 129.304 52.8147Z" fill="#284268"/>
<path d="M67.8463 141.269C66.5484 141.269 65.2796 140.884 64.2004 140.163C63.1212 139.442 62.2801 138.417 61.7834 137.218C61.2867 136.019 61.1567 134.7 61.4099 133.427C61.6631 132.154 62.2882 130.984 63.2059 130.066C64.1237 129.149 65.293 128.524 66.566 128.27C67.839 128.017 69.1585 128.147 70.3577 128.644C71.5568 129.141 72.5817 129.982 73.3028 131.061C74.0239 132.14 74.4088 133.409 74.4088 134.707C74.4068 136.447 73.7148 138.115 72.4845 139.345C71.2542 140.575 69.5862 141.267 67.8463 141.269ZM67.8463 131.894C67.2901 131.894 66.7463 132.059 66.2838 132.368C65.8213 132.677 65.4608 133.117 65.2479 133.631C65.035 134.144 64.9793 134.71 65.0879 135.256C65.1964 135.801 65.4643 136.302 65.8576 136.696C66.2509 137.089 66.7521 137.357 67.2976 137.465C67.8432 137.574 68.4087 137.518 68.9226 137.305C69.4365 137.092 69.8758 136.732 70.1848 136.269C70.4939 135.807 70.6588 135.263 70.6588 134.707C70.658 133.961 70.3614 133.246 69.8341 132.719C69.3069 132.192 68.592 131.895 67.8463 131.894Z" fill="#284268"/>
<path d="M49.0963 141.269C47.7984 141.269 46.5296 140.884 45.4504 140.163C44.3712 139.442 43.5301 138.417 43.0334 137.218C42.5367 136.019 42.4067 134.7 42.6599 133.427C42.9131 132.154 43.5381 130.984 44.4559 130.066C45.3737 129.149 46.543 128.524 47.816 128.27C49.089 128.017 50.4085 128.147 51.6077 128.644C52.8068 129.141 53.8317 129.982 54.5528 131.061C55.2739 132.14 55.6588 133.409 55.6588 134.707C55.6568 136.447 54.9648 138.115 53.7345 139.345C52.5042 140.575 50.8362 141.267 49.0963 141.269ZM49.0963 131.894C48.5401 131.894 47.9963 132.059 47.5338 132.368C47.0713 132.677 46.7108 133.117 46.4979 133.631C46.285 134.144 46.2293 134.71 46.3379 135.256C46.4464 135.801 46.7142 136.302 47.1076 136.696C47.5009 137.089 48.0021 137.357 48.5476 137.465C49.0932 137.574 49.6587 137.518 50.1726 137.305C50.6865 137.092 51.1258 136.732 51.4348 136.269C51.7439 135.807 51.9088 135.263 51.9088 134.707C51.908 133.961 51.6114 133.246 51.0841 132.719C50.5569 132.192 49.842 131.895 49.0963 131.894Z" fill="#284268"/>
<path d="M86.5963 141.269C85.2984 141.269 84.0296 140.884 82.9504 140.163C81.8712 139.442 81.0301 138.417 80.5334 137.218C80.0367 136.019 79.9067 134.7 80.1599 133.427C80.4131 132.154 81.0381 130.984 81.9559 130.066C82.8737 129.149 84.043 128.524 85.316 128.27C86.589 128.017 87.9085 128.147 89.1077 128.644C90.3068 129.141 91.3317 129.982 92.0528 131.061C92.7739 132.14 93.1588 133.409 93.1588 134.707C93.1568 136.447 92.4648 138.115 91.2345 139.345C90.0042 140.575 88.3362 141.267 86.5963 141.269ZM86.5963 131.894C86.0401 131.894 85.4963 132.059 85.0338 132.368C84.5713 132.677 84.2108 133.117 83.9979 133.631C83.785 134.144 83.7293 134.71 83.8379 135.256C83.9464 135.801 84.2142 136.302 84.6076 136.696C85.0009 137.089 85.5021 137.357 86.0476 137.465C86.5932 137.574 87.1587 137.518 87.6726 137.305C88.1865 137.092 88.6258 136.732 88.9348 136.269C89.2439 135.807 89.4088 135.263 89.4088 134.707C89.408 133.961 89.1114 133.246 88.5841 132.719C88.0569 132.192 87.342 131.895 86.5963 131.894Z" fill="#284268"/>
<path d="M76.6606 63.2587C77.3898 64.1834 77.9271 65.2443 78.2411 66.3793C78.5552 67.5142 78.6396 68.7004 78.4894 69.8684C78.2073 72.0315 77.1472 74.0179 75.5073 75.4564C73.8674 76.8949 71.7598 77.6871 69.5784 77.685C69.1971 77.685 68.8161 77.661 68.4378 77.6131C67.2668 77.4692 66.1356 77.0959 65.109 76.5144C64.0824 75.9329 63.1805 75.1547 62.455 74.2244C61.7258 73.2997 61.1885 72.2388 60.8744 71.1038C60.5604 69.9689 60.476 68.7827 60.6262 67.6147C60.8626 65.8569 61.6121 64.2079 62.781 62.874C63.95 61.5402 65.4864 60.5807 67.1979 60.1157C68.9095 59.6508 70.7201 59.701 72.4033 60.26C74.0865 60.8191 75.5674 61.8622 76.6606 63.2587ZM73.7075 65.5712C73.2829 65.0273 72.7553 64.5725 72.1547 64.2328C71.5541 63.8931 70.8924 63.6752 70.2075 63.5916C69.9858 63.5635 69.7625 63.5494 69.5391 63.5494C68.27 63.5454 67.0429 64.0036 66.0871 64.8385C65.1313 65.6734 64.5122 66.8278 64.3456 68.0859C64.2591 68.7627 64.3085 69.4499 64.491 70.1072C64.6734 70.7646 64.9852 71.379 65.4081 71.9144C66.0451 72.7279 66.9074 73.3361 67.8876 73.6631C68.8678 73.9901 69.9225 74.0215 70.9204 73.7535C71.9183 73.4854 72.8153 72.9297 73.4996 72.1555C74.184 71.3813 74.6254 70.4229 74.769 69.3997C74.8558 68.7228 74.8065 68.0354 74.6243 67.3778C74.442 66.7202 74.1303 66.1056 73.7075 65.57V65.5712Z" fill="#284268"/>
<path d="M7.64816 60.9381C8.77155 52.1431 11.999 43.7486 17.0569 36.4663C22.892 28.1115 30.9005 21.5112 40.216 17.3794C49.5315 13.2476 59.7994 11.7415 69.9091 13.0241C84.4075 14.8366 97.491 22.2963 106.743 34.0241C113.653 42.7841 117.707 53.0241 118.606 63.641C123.919 64.0709 128.876 66.4841 132.493 70.4009C136.109 74.3177 138.119 79.4516 138.124 84.7825V104.513C138.128 105.594 138.559 106.63 139.324 107.393C140.09 108.157 141.126 108.586 142.207 108.587C144.378 108.577 146.53 108.996 148.539 109.82C150.548 110.643 152.374 111.856 153.913 113.387C155.452 114.919 156.674 116.739 157.507 118.744C158.341 120.749 158.77 122.898 158.771 125.07C158.771 127.241 158.343 129.391 157.511 131.396C156.678 133.401 155.458 135.222 153.92 136.755C152.381 138.287 150.556 139.501 148.547 140.325C146.539 141.15 144.387 141.57 142.216 141.562H116.632C116.283 143.235 115.371 144.737 114.047 145.818C112.723 146.899 111.069 147.492 109.36 147.499H26.3328C22.2222 147.499 18.7494 144.127 18.7494 140.016V129.396C18.7731 127.635 19.4101 125.937 20.551 124.595C21.6918 123.252 23.2649 122.35 24.9994 122.043V108.413C18.5387 102.451 13.594 95.033 10.5762 86.776C7.55838 78.519 6.55457 69.661 7.64816 60.9381ZM103.802 36.3478C95.1644 25.3972 82.9647 18.4366 69.4503 16.745C58.5318 15.3463 47.4513 17.4522 37.8072 22.7591C37.651 22.845 37.4947 22.9363 37.3403 23.0241L69.8716 51.2213C70.5005 51.2334 71.1284 51.2788 71.7525 51.3572C74.05 51.6392 76.2693 52.3715 78.2835 53.5121C80.2977 54.6528 82.0671 56.1794 83.4906 58.0047C84.9189 59.8157 85.9715 61.8935 86.5867 64.1164C87.2019 66.3393 87.3674 68.6627 87.0735 70.9503C85.9572 79.7888 78.3519 86.265 69.6013 86.265C68.8528 86.2649 68.1051 86.2177 67.3625 86.1238C66.7673 86.0488 66.1809 85.9446 65.6032 85.8113L28.7494 108.694V112.499H107.187V104.848C107.139 99.5265 108.25 94.2585 110.444 89.4103C112.662 84.5608 114.108 79.3942 114.728 74.0978C116.334 60.7006 112.437 47.2941 103.802 36.3478ZM69.5172 54.9678C66.1538 54.9601 62.9026 56.1774 60.3713 58.3921C57.84 60.6069 56.2017 63.6676 55.7625 67.0022C55.5321 68.7985 55.6625 70.6227 56.1459 72.3679C56.6293 74.1132 57.4561 75.7445 58.5778 77.1663C59.7003 78.6049 61.0955 79.808 62.6835 80.7069C64.2714 81.6058 66.021 82.1827 67.8322 82.4047C75.4391 83.3631 82.4019 78.0153 83.3535 70.4816C83.5838 68.6852 83.4534 66.861 82.9699 65.1157C82.4865 63.3703 81.6596 61.739 80.5378 60.3172C79.4154 58.8786 78.0203 57.6754 76.4324 56.7766C74.8445 55.8777 73.0949 55.3008 71.2838 55.0788C70.6978 55.005 70.1078 54.9679 69.5172 54.9678ZM28.7494 116.249V121.874H107.187V116.249H28.7494ZM118.8 67.4203C118.829 69.5598 118.73 71.699 118.503 73.8266C118.76 73.863 119.014 73.9085 119.265 73.9628L122.221 68.1397C121.108 67.7852 119.962 67.5442 118.8 67.4203ZM125.653 69.6644L123.355 74.1925L127.765 71.1028C127.097 70.5725 126.391 70.0917 125.653 69.6644ZM130.478 73.7803L125.347 77.3741L131.981 75.9422C131.535 75.1849 131.033 74.4623 130.478 73.7803ZM133.554 79.3922L127.253 80.7278C127.504 81.4054 127.699 82.1023 127.836 82.8116H134.29C134.17 81.6485 133.923 80.5021 133.554 79.3925V79.3922ZM134.374 86.5616H128.124V89.3741H134.374V86.5616ZM134.374 93.1241H128.124V95.6241H134.374V93.1241ZM134.374 99.3741H128.124V102.593L134.374 101.946V99.3741ZM134.483 105.705L128.12 106.349C128.367 108.262 129.003 110.103 129.99 111.76L135.24 108.045C134.865 107.31 134.609 106.52 134.483 105.705ZM137.702 110.897L132.318 114.707C133.419 115.778 134.685 116.664 136.068 117.332L139.867 111.976C139.093 111.731 138.362 111.367 137.701 110.897H137.702ZM144.108 112.478L139.82 118.526C140.611 118.662 141.413 118.731 142.217 118.732C142.41 118.732 142.6 118.744 142.789 118.761L148.274 113.867C146.977 113.165 145.567 112.695 144.108 112.478H144.108ZM154.552 128.468C155.027 126.723 155.125 124.897 154.84 123.111L148.58 124.648C148.586 124.717 148.588 124.787 148.591 124.857L154.552 128.468ZM149.855 135.364C151.113 134.422 152.188 133.258 153.028 131.928L147.559 128.616C147.365 128.909 147.147 129.186 146.908 129.444L149.855 135.364ZM147.194 121.126L153.708 119.527C153.101 118.287 152.297 117.152 151.329 116.167L146.545 120.437C146.778 120.65 146.995 120.88 147.194 121.126V121.126ZM142.187 137.812H142.216C143.692 137.828 145.159 137.587 146.552 137.099L143.66 131.343C143.189 131.471 142.704 131.544 142.216 131.562H142.187V137.812ZM135.937 137.812H138.437V131.562H135.937V137.812ZM129.374 137.812H132.187V131.562H129.374V137.812ZM123.124 137.812H125.624V131.562H123.124V137.812ZM116.874 137.812H119.374V131.562H116.874V137.812ZM116.632 127.812H142.216C142.918 127.805 143.59 127.521 144.084 127.022C144.578 126.523 144.855 125.849 144.854 125.147C144.861 124.803 144.8 124.461 144.674 124.141C144.548 123.822 144.36 123.53 144.121 123.283C143.881 123.037 143.595 122.84 143.279 122.705C142.963 122.569 142.623 122.498 142.28 122.495C137.521 122.484 132.961 120.584 129.604 117.212C126.246 113.84 124.365 109.272 124.374 104.513V84.7825C124.358 83.0186 123.711 81.3187 122.551 79.9904C121.39 78.6621 119.792 77.7931 118.046 77.5406C117.242 82.1802 115.843 86.6966 113.883 90.9781C111.906 95.3326 110.9 100.066 110.937 104.848V122.088C113.749 122.667 115.989 124.999 116.632 127.812ZM101.562 143.749H109.36C110.351 143.744 111.301 143.35 112.005 142.652C112.709 141.954 113.111 141.007 113.124 140.016V129.396C113.112 128.401 112.712 127.449 112.009 126.745C111.306 126.04 110.355 125.638 109.36 125.624H101.562V143.749ZM37.8119 143.749H97.8119V125.624H37.8119V143.749ZM22.4994 129.396V140.016C22.4994 142.059 24.2897 143.749 26.3328 143.749H34.0619V125.624H26.3328C25.3302 125.635 24.3709 126.034 23.6562 126.738C22.9415 127.441 22.5269 128.394 22.4994 129.396ZM27.1738 105.258L61.1716 84.1503C59.0183 82.994 57.1292 81.4023 55.6244 79.4763C54.1961 77.6652 53.1436 75.5873 52.5285 73.3644C51.9133 71.1414 51.748 68.818 52.0422 66.5303C52.4877 63.0889 53.9434 59.8569 56.2253 57.2426C58.5072 54.6283 61.5129 52.7492 64.8625 51.8428L33.985 25.0794C28.5739 28.6874 23.8856 33.276 20.1622 38.6084C15.4329 45.382 12.4324 53.2098 11.4225 61.4091C10.414 69.4417 11.3148 77.599 14.0517 85.2181C16.7887 92.8371 21.2844 99.703 27.1738 105.258Z" fill="#284268"/>
</svg>
