<svg width="30" height="30" viewBox="0 0 30 30" fill="none" xmlns="http://www.w3.org/2000/svg">
<path d="M7.21468 21.8798C7.28421 21.8799 7.35218 21.8592 7.41 21.8206C7.46782 21.782 7.51289 21.7271 7.5395 21.6629C7.56612 21.5986 7.57309 21.5279 7.55954 21.4597C7.54598 21.3916 7.51251 21.3289 7.46335 21.2797C6.93765 20.7541 6.47586 20.1682 6.08756 19.5343C6.03891 19.4547 5.96066 19.3978 5.87001 19.3759C5.77936 19.3541 5.68374 19.3691 5.60419 19.4178C5.52464 19.4664 5.46768 19.5447 5.44583 19.6353C5.42398 19.726 5.43903 19.8216 5.48768 19.9011C5.90491 20.5824 6.40112 21.2119 6.966 21.7768C6.99862 21.8095 7.03738 21.8354 7.08005 21.8531C7.12273 21.8708 7.16848 21.8799 7.21468 21.8798Z" fill="white"/>
<path d="M4.99333 11.1539C4.94962 11.139 4.9034 11.1329 4.85733 11.1359C4.81126 11.1389 4.76623 11.151 4.72481 11.1714C4.68339 11.1918 4.6464 11.2201 4.61595 11.2548C4.58549 11.2895 4.56217 11.3299 4.54731 11.3736C3.90506 13.2593 3.83432 15.2928 4.34399 17.2186C4.36962 17.3066 4.42862 17.3811 4.50841 17.4263C4.58821 17.4714 4.68248 17.4836 4.77113 17.4602C4.85978 17.4369 4.9358 17.3798 4.98298 17.3012C5.03016 17.2226 5.04476 17.1287 5.02368 17.0394C4.54932 15.2472 4.61512 13.3548 5.21282 11.5999C5.24284 11.5116 5.23659 11.4151 5.19543 11.3314C5.15426 11.2478 5.08157 11.1839 4.99333 11.1539Z" fill="white"/>
<path d="M2.07769 3.9091C2.33571 3.9959 2.57012 4.14128 2.76253 4.33385C2.95495 4.52642 3.10015 4.76095 3.18675 5.01904C3.21007 5.08906 3.25483 5.14996 3.3147 5.19312C3.37456 5.23627 3.44649 5.2595 3.52029 5.2595C3.59409 5.2595 3.66602 5.23627 3.72588 5.19312C3.78575 5.14996 3.83051 5.08906 3.85384 5.01904C3.94043 4.76095 4.08562 4.52642 4.27804 4.33385C4.47046 4.14128 4.70487 3.99589 4.9629 3.9091C5.03287 3.88575 5.09373 3.84098 5.13685 3.78113C5.17998 3.72128 5.20318 3.64938 5.20318 3.57561C5.20318 3.50184 5.17998 3.42994 5.13685 3.37009C5.09373 3.31024 5.03287 3.26547 4.9629 3.24212C4.70488 3.15533 4.47047 3.00994 4.27805 2.81737C4.08563 2.6248 3.94043 2.39027 3.85384 2.13218C3.83051 2.06217 3.78575 2.00126 3.72588 1.95811C3.66602 1.91495 3.59409 1.89172 3.52029 1.89172C3.44649 1.89172 3.37456 1.91495 3.3147 1.95811C3.25483 2.00126 3.21007 2.06217 3.18675 2.13218C3.10014 2.39027 2.95494 2.62478 2.76252 2.81735C2.5701 3.00992 2.3357 3.15531 2.07769 3.24212C2.00771 3.26547 1.94685 3.31024 1.90373 3.37009C1.86061 3.42994 1.8374 3.50184 1.8374 3.57561C1.8374 3.64938 1.86061 3.72128 1.90373 3.78113C1.94685 3.84098 2.00771 3.88575 2.07769 3.9091ZM3.52032 3.00675C3.6776 3.22594 3.86957 3.41802 4.08868 3.57541C3.86957 3.73282 3.6776 3.92491 3.52032 4.14412C3.36301 3.92494 3.17104 3.73285 2.95196 3.57541C3.17104 3.41805 3.36301 3.22604 3.52032 3.00693V3.00675Z" fill="white"/>
<path d="M25.5323 25.6912C25.2743 25.6044 25.0399 25.459 24.8475 25.2665C24.6551 25.0739 24.5099 24.8394 24.4233 24.5813C24.3999 24.5113 24.3552 24.4504 24.2953 24.4072C24.2354 24.3641 24.1635 24.3409 24.0897 24.3409C24.0159 24.3409 23.944 24.3641 23.8841 24.4072C23.8243 24.4504 23.7795 24.5113 23.7562 24.5813C23.6696 24.8394 23.5244 25.0739 23.332 25.2665C23.1395 25.459 22.9051 25.6044 22.6471 25.6912C22.5771 25.7145 22.5162 25.7593 22.4731 25.8192C22.43 25.879 22.4067 25.9509 22.4067 26.0247C22.4067 26.0985 22.43 26.1704 22.4731 26.2303C22.5162 26.2901 22.5771 26.3349 22.6471 26.3582C22.9051 26.445 23.1395 26.5904 23.332 26.7829C23.5244 26.9755 23.6696 27.21 23.7562 27.4681C23.7795 27.5381 23.8243 27.599 23.8841 27.6422C23.944 27.6853 24.0159 27.7086 24.0897 27.7086C24.1635 27.7086 24.2354 27.6853 24.2953 27.6422C24.3552 27.599 24.3999 27.5381 24.4233 27.4681C24.5099 27.21 24.655 26.9755 24.8475 26.7829C25.0399 26.5904 25.2743 26.445 25.5323 26.3582C25.6023 26.3348 25.6631 26.2901 25.7063 26.2302C25.7494 26.1703 25.7726 26.0984 25.7726 26.0246C25.7726 25.9509 25.7494 25.879 25.7063 25.8191C25.6631 25.7592 25.6023 25.7145 25.5323 25.6911V25.6912ZM24.0897 26.5935C23.9324 26.3744 23.7404 26.1823 23.5213 26.0249C23.7404 25.8676 23.9324 25.6756 24.0897 25.4565C24.247 25.6756 24.439 25.8676 24.658 26.0249C24.439 26.1823 24.247 26.3743 24.0897 26.5934V26.5935Z" fill="white"/>
<path d="M21.0277 28.3378C20.8923 28.3377 20.7599 28.3778 20.6473 28.453C20.5346 28.5282 20.4468 28.6351 20.395 28.7602C20.3431 28.8853 20.3295 29.023 20.3559 29.1559C20.3823 29.2887 20.4475 29.4107 20.5432 29.5065C20.639 29.6023 20.761 29.6675 20.8938 29.6939C21.0266 29.7204 21.1643 29.7068 21.2894 29.655C21.4145 29.6032 21.5215 29.5154 21.5967 29.4028C21.672 29.2902 21.7121 29.1578 21.7121 29.0224C21.7119 28.8409 21.6397 28.667 21.5114 28.5386C21.3831 28.4103 21.2092 28.3381 21.0277 28.3378Z" fill="white"/>
<path d="M7.04839 1.66221C7.18382 1.66227 7.31623 1.62216 7.42886 1.54696C7.54149 1.47176 7.6293 1.36485 7.68116 1.23975C7.73302 1.11464 7.74662 0.976965 7.72023 0.844131C7.69384 0.711298 7.62865 0.589275 7.5329 0.493495C7.43716 0.397716 7.31516 0.332483 7.18233 0.306048C7.0495 0.279612 6.91182 0.293162 6.7867 0.344984C6.66158 0.396805 6.55463 0.484569 6.47939 0.597176C6.40415 0.709784 6.364 0.842174 6.36401 0.977604C6.36426 1.15906 6.43644 1.33301 6.56472 1.46134C6.69301 1.58967 6.86694 1.6619 7.04839 1.66221Z" fill="white"/>
<path d="M27.5734 0.420842C27.5075 0.486772 27.4705 0.57619 27.4705 0.669426C27.4705 0.762662 27.5075 0.85208 27.5734 0.91801C28.4076 1.75285 28.8398 2.88676 28.8577 4.27596C28.8587 4.36902 28.896 4.45802 28.9617 4.52396C29.0274 4.58991 29.1162 4.62757 29.2093 4.62893H29.2139C29.3079 4.62677 29.3972 4.58746 29.4622 4.5196C29.5273 4.45173 29.5628 4.36086 29.5609 4.26688C29.5404 2.68783 29.0391 1.39291 28.0708 0.423947C28.0384 0.391064 27.9998 0.364898 27.9572 0.346944C27.9146 0.32899 27.869 0.319601 27.8228 0.319312C27.7766 0.319024 27.7308 0.327842 27.688 0.345263C27.6452 0.362684 27.6063 0.388366 27.5734 0.420842Z" fill="white"/>
<path d="M28.9717 6.42857C28.9269 6.41745 28.8804 6.41526 28.8347 6.42213C28.789 6.429 28.7452 6.4448 28.7056 6.46862C28.6661 6.49244 28.6316 6.52382 28.6042 6.56096C28.5768 6.5981 28.5569 6.64028 28.5458 6.68509C28.4633 7.01767 28.3633 7.36414 28.2484 7.71488C28.2327 7.75909 28.2259 7.80601 28.2286 7.85288C28.2313 7.89974 28.2433 7.94559 28.2639 7.98774C28.2846 8.02988 28.3135 8.06746 28.3489 8.09826C28.3843 8.12906 28.4256 8.15245 28.4702 8.16706C28.5148 8.18167 28.5618 8.1872 28.6086 8.18332C28.6554 8.17945 28.7009 8.16625 28.7425 8.14449C28.7841 8.12274 28.8209 8.09288 28.8508 8.05667C28.8806 8.02047 28.903 7.97864 28.9164 7.93367C29.0365 7.56664 29.1414 7.20353 29.228 6.85443C29.2505 6.76397 29.2361 6.6683 29.188 6.58844C29.14 6.50859 29.0622 6.45108 28.9717 6.42857Z" fill="white"/>
<path d="M17.7432 2.96303C15.6154 2.30283 13.3477 2.23608 11.1847 2.76998C9.02176 3.30389 7.0456 4.41818 5.46939 5.99268C2.1514 9.31313 1.14646 14.0845 2.45298 18.2845C2.42779 18.3085 2.40628 18.3362 2.38917 18.3665C0.109116 22.4034 -0.179107 25.4549 1.55574 27.191C2.29853 27.9343 3.289 28.3053 4.49779 28.3052C5.87374 28.3052 7.53242 27.8243 9.42874 26.8644C9.77081 26.6913 10.1182 26.5039 10.4708 26.3023C12.5985 26.9636 14.8665 27.0306 17.0295 26.4961C19.1925 25.9617 21.1682 24.846 22.743 23.2698C24.3177 21.6937 25.4317 19.717 25.9642 17.5535C26.4968 15.39 26.4278 13.1221 25.7646 10.9951C26.4823 9.73624 27.019 8.55065 27.3518 7.47815C28.0908 5.09702 27.8557 3.27956 26.6534 2.07628C24.9029 0.324557 21.8234 0.632819 17.7432 2.96303ZM5.96679 6.48973C7.46472 4.99329 9.34577 3.93818 11.4037 3.44011C13.4616 2.94203 15.617 3.02022 17.6334 3.6661C17.6596 3.67806 17.6871 3.68677 17.7154 3.69206C18.3138 3.88932 18.8946 4.13605 19.452 4.42969C19.4713 4.44221 19.4917 4.45283 19.513 4.46139C21.4892 5.52093 23.1164 7.13004 24.1979 9.09434C23.587 10.269 22.7701 11.5611 21.7677 12.914C21.6114 12.8855 21.4528 12.871 21.2939 12.8709C20.8583 12.871 20.4293 12.9768 20.0436 13.179C19.6578 13.3813 19.3269 13.674 19.079 14.0322C18.8312 14.3903 18.6738 14.8032 18.6205 15.2355C18.5671 15.6678 18.6194 16.1065 18.7727 16.5142C18.3305 16.9932 17.8722 17.4714 17.4061 17.938C14.4523 20.894 11.315 23.3065 8.569 24.7343C7.61333 24.2086 6.73718 23.5498 5.96679 22.7776C1.47939 18.2871 1.47939 10.9805 5.96679 6.48973ZM20.4024 4.15852C22.6289 3.12891 24.3008 2.95471 25.0379 3.69229C25.7954 4.45026 25.5876 6.14216 24.5721 8.33421C23.5404 6.62554 22.1095 5.19267 20.4024 4.15852ZM23.1527 14.8519C23.3049 15.2485 23.3263 15.6834 23.2136 16.093C23.101 16.5027 22.8603 16.8655 22.5266 17.1285C22.193 17.3915 21.784 17.5409 21.3594 17.5548C20.9348 17.5687 20.5169 17.4464 20.1668 17.2058C19.8166 16.9652 19.5527 16.6189 19.4135 16.2175C19.2743 15.8161 19.2671 15.3808 19.393 14.975C19.519 14.5693 19.7714 14.2145 20.1135 13.9625C20.4555 13.7105 20.8692 13.5746 21.294 13.5745C21.6968 13.5737 22.0903 13.6954 22.4223 13.9235C22.7543 14.1516 23.009 14.4753 23.1526 14.8516L23.1527 14.8519ZM7.80921 25.1081C5.58013 26.1402 3.91074 26.3151 3.17128 25.5749C2.43365 24.8367 2.60831 23.1618 3.63886 20.9317C4.6685 22.6424 6.10002 24.076 7.80921 25.1081ZM9.11134 26.2371C7.7082 26.9473 6.00288 27.6052 4.50066 27.6052C3.5655 27.6052 2.70886 27.3501 2.0532 26.694C1.29523 25.9356 1.00853 24.8379 1.20119 23.4304C1.36923 22.2015 1.89371 20.7639 2.75978 19.1526C2.89716 19.4995 3.05111 19.8409 3.22162 20.1768C2.58124 21.4667 2.19148 22.6073 2.06398 23.5682C1.91691 24.6771 2.12222 25.5193 2.67435 26.072C3.10941 26.5074 3.73326 26.7234 4.51906 26.7234C5.65794 26.7234 7.13661 26.2691 8.87035 25.3703C11.6841 23.9118 14.8923 21.4487 17.9039 18.4349C18.3199 18.0189 18.7301 17.5932 19.128 17.166C19.3033 17.4029 19.5161 17.6097 19.7578 17.7782C19.3552 18.2104 18.9421 18.6393 18.5247 19.0569C15.4201 22.1632 11.9892 24.7803 9.11134 26.2371ZM25.319 17.2289C24.9753 18.7196 24.3378 20.1269 23.4439 21.3684C22.5499 22.61 21.4174 23.6608 20.1126 24.4594C18.8077 25.2581 17.3567 25.7886 15.8444 26.0199C14.3321 26.2512 12.7889 26.1786 11.305 25.8065C13.7967 24.2672 16.4742 22.1033 19.0218 19.5539C19.4919 19.0833 19.9568 18.5988 20.4076 18.1109C20.8928 18.2794 21.4161 18.3057 21.9158 18.1869C22.4154 18.068 22.8708 17.8088 23.2281 17.4399C23.5855 17.071 23.83 16.6077 23.9329 16.1045C24.0358 15.6013 23.9928 15.0791 23.809 14.5995C23.7604 14.473 23.7022 14.3505 23.6348 14.2329C24.241 13.414 24.787 12.6102 25.2688 11.8299C25.711 13.6004 25.7282 15.4504 25.3188 17.2289H25.319ZM26.6804 7.26979C26.1096 9.10917 24.9051 11.3097 23.1883 13.6536C22.9781 13.4464 22.7358 13.2746 22.4707 13.1449C23.4682 11.7819 24.2884 10.4691 24.9038 9.25764C24.9051 9.25524 24.9062 9.25272 24.9075 9.25026C25.2219 8.63947 25.4957 8.00867 25.7274 7.36196C26.4024 5.4371 26.3357 3.9961 25.5352 3.19524C24.983 2.64258 24.1411 2.43751 23.0327 2.5844C22.0739 2.71173 20.9363 3.10073 19.6497 3.73975C19.3159 3.56917 18.9749 3.4146 18.6267 3.27604C20.1938 2.43305 21.5967 1.91479 22.8048 1.73356C24.2546 1.51618 25.382 1.79866 26.156 2.57327C27.1594 3.57739 27.3358 5.15749 26.6803 7.26979H26.6804Z" fill="white"/>
</svg>
