<svg width="80" height="80" viewBox="0 0 80 80" fill="none" xmlns="http://www.w3.org/2000/svg">
<path d="M33.3329 63.3333C32.554 63.3349 31.7992 63.0636 31.1995 62.5667C30.862 62.2868 30.583 61.9432 30.3785 61.5553C30.174 61.1675 30.048 60.7432 30.0077 60.3066C29.9675 59.87 30.0138 59.4298 30.1439 59.0111C30.274 58.5924 30.4855 58.2035 30.7662 57.8667L45.6995 40L31.2995 22.1C31.0226 21.759 30.8159 21.3667 30.6911 20.9456C30.5663 20.5245 30.526 20.0828 30.5725 19.6461C30.6189 19.2093 30.7513 18.786 30.9618 18.4006C31.1724 18.0151 31.4571 17.6751 31.7995 17.4C32.1444 17.0966 32.5483 16.8677 32.9858 16.7277C33.4234 16.5877 33.8851 16.5397 34.3421 16.5867C34.7991 16.6336 35.2414 16.7745 35.6414 17.0005C36.0413 17.2265 36.3902 17.5328 36.6662 17.9L52.7662 37.9C53.2565 38.4965 53.5245 39.2446 53.5245 40.0167C53.5245 40.7888 53.2565 41.5369 52.7662 42.1333L36.0995 62.1333C35.7651 62.5367 35.3403 62.8556 34.8597 63.0641C34.379 63.2726 33.8559 63.3648 33.3329 63.3333Z" fill="white"/>
</svg>
