<svg width="80" height="80" viewBox="0 0 80 80" fill="none" xmlns="http://www.w3.org/2000/svg">
<path d="M46.1004 63.3333C45.6024 63.335 45.1104 63.225 44.6604 63.0116C44.2105 62.7982 43.8141 62.4867 43.5004 62.0999L27.4004 42.0999C26.9101 41.5035 26.6421 40.7553 26.6421 39.9833C26.6421 39.2112 26.9101 38.463 27.4004 37.8666L44.067 17.8666C44.6328 17.1859 45.4459 16.7578 46.3273 16.6765C47.2087 16.5953 48.0863 16.8675 48.767 17.4333C49.4478 17.9991 49.8759 18.8121 49.9571 19.6935C50.0384 20.5749 49.7662 21.4525 49.2004 22.1333L34.3004 39.9999L48.7004 57.8666C49.108 58.3559 49.3669 58.9517 49.4465 59.5835C49.5261 60.2153 49.4231 60.8568 49.1495 61.4318C48.876 62.0069 48.4435 62.4916 47.9031 62.8286C47.3627 63.1656 46.7372 63.3407 46.1004 63.3333Z" fill="white"/>
</svg>
