<svg width="100" height="100" viewBox="0 0 100 100" fill="none" xmlns="http://www.w3.org/2000/svg">
<path d="M72.5937 31.6875C70.0085 28.1613 66.686 25.2407 62.8574 23.1289C63.282 22.0937 63.4794 20.9794 63.436 19.8613C63.3927 18.7432 63.1097 17.6475 62.6061 16.6483C62.1026 15.6491 61.3903 14.7697 60.5175 14.0696C59.6447 13.3695 58.6316 12.8651 57.5469 12.5904C56.4622 12.3158 55.3312 12.2774 54.2304 12.4777C53.1296 12.6781 52.0846 13.1126 51.1663 13.7518C50.2479 14.391 49.4776 15.22 48.9074 16.1828C48.3372 17.1455 47.9804 18.2195 47.8613 19.332H47.8593C44.0643 19.374 40.3115 20.1334 36.7988 21.5703C21.3691 27.8672 13.9375 45.541 20.2343 60.9707C26.5312 76.4004 44.2031 83.832 59.6328 77.5352C60.1777 77.3125 60.7148 77.0762 61.2402 76.8242C75.5703 69.9922 82.2715 53.0195 76.1992 38.1367C75.2666 35.8472 74.0557 33.6811 72.5937 31.6875ZM88 33.3203C96.9511 55.2578 86.3867 80.3867 64.4492 89.3379C54.6701 93.3383 43.7569 93.5797 33.8105 90.0156C34.4454 88.6465 34.5274 87.0851 34.0394 85.657C33.5514 84.2289 32.5311 83.0442 31.1911 82.3499C29.8511 81.6556 28.2948 81.5053 26.8467 81.9302C25.3986 82.3551 24.1703 83.3226 23.4179 84.6309C16.7198 79.9157 11.5179 73.3748 8.43161 65.7871C-0.519564 43.8496 10.0468 18.7207 31.9824 9.76954C53.9179 0.818366 79.0508 11.3828 88 33.3203Z" fill="#E5F5FD"/>
<path d="M76.1992 38.1367C73.5999 31.755 68.8907 26.4577 62.8574 23.1289C62.1419 24.868 60.8234 26.2907 59.1436 27.1361C57.4639 27.9815 55.5356 28.1928 53.7126 27.7313C51.8897 27.2698 50.2942 26.1664 49.2191 24.6236C48.1439 23.0808 47.6612 21.202 47.8594 19.332C44.0643 19.374 40.3115 20.1334 36.7988 21.5703C21.3691 27.8672 13.9375 45.541 20.2344 60.9707C26.5312 76.4004 44.2031 83.832 59.6328 77.5352C60.1777 77.3125 60.7148 77.0762 61.2402 76.8242C75.5703 69.9922 82.2715 53.0195 76.1992 38.1367ZM68.25 56.7773C67.6043 57.0427 66.8847 57.067 66.2226 56.8457C64.458 61.2228 61.1554 64.8046 56.9355 66.918C56.4883 67.1426 56.0273 67.3516 55.5566 67.543C51.6394 69.1387 47.3083 69.4118 43.2217 68.3206C39.1351 67.2294 35.5165 64.8338 32.9162 61.4977C30.3158 58.1617 28.8758 54.0679 28.8151 49.8385C28.7545 45.6092 30.0765 41.4757 32.5801 38.0665C35.0838 34.6573 38.6321 32.1588 42.6857 30.9509C46.7394 29.743 51.0765 29.8917 55.0379 31.3745C58.9993 32.8573 62.3681 35.593 64.6323 39.1657C66.8965 42.7384 67.9323 46.9527 67.582 51.168C68.2162 51.264 68.8014 51.5655 69.2477 52.0262C69.694 52.4869 69.9768 53.0813 70.0526 53.7182C70.1285 54.3551 69.9932 54.9994 69.6675 55.552C69.3419 56.1046 68.8439 56.5351 68.25 56.7773ZM72.123 50.2402C72.0998 50.2473 72.0748 50.2455 72.0528 50.2351C72.0309 50.2247 72.0136 50.2065 72.0043 50.1841C71.995 50.1616 71.9945 50.1366 72.0027 50.1137C72.0109 50.0909 72.0274 50.0719 72.0488 50.0605C72.0608 50.0542 72.0741 50.0504 72.0876 50.0494C72.1012 50.0484 72.1149 50.0503 72.1277 50.0549C72.1405 50.0595 72.1522 50.0668 72.162 50.0762C72.1719 50.0856 72.1796 50.0969 72.1848 50.1095C72.19 50.1221 72.1925 50.1356 72.1922 50.1493C72.1919 50.1629 72.1887 50.1763 72.1829 50.1886C72.177 50.2009 72.1687 50.2118 72.1584 50.2207C72.1481 50.2296 72.136 50.2363 72.123 50.2402Z" fill="#A6B7D0"/>
<path d="M66.2226 56.8457C65.5698 56.6295 65.0139 56.1906 64.6521 55.6058C64.2904 55.021 64.1459 54.3275 64.2439 53.6469C64.342 52.9663 64.6763 52.3418 65.1884 51.8829C65.7005 51.4239 66.3577 51.1597 67.0449 51.1365C67.7322 51.1134 68.4057 51.3327 68.9476 51.7561C69.4894 52.1795 69.8651 52.78 70.0087 53.4525C70.1524 54.125 70.0549 54.8266 69.7334 55.4344C69.4118 56.0423 68.8867 56.5177 68.25 56.7773C67.6041 57.0417 66.8849 57.066 66.2226 56.8457Z" fill="#FFDB00"/>
<path d="M66.2051 42.2129C64.7532 38.655 62.2789 35.6076 59.0951 33.456C55.9112 31.3044 52.1609 30.1452 48.3182 30.125C44.4756 30.1049 40.7133 31.2246 37.507 33.3427C34.3008 35.4607 31.7946 38.482 30.3054 42.0244C28.8162 45.5668 28.4109 49.4712 29.1408 53.244C29.8706 57.0167 31.7028 60.4883 34.4056 63.2198C37.1085 65.9513 40.5606 67.8199 44.3254 68.5894C48.0903 69.3589 51.9988 68.9948 55.5567 67.543C56.0274 67.3516 56.4883 67.1426 56.9356 66.918C61.1554 64.8047 64.458 61.2228 66.2227 56.8457C65.526 56.6148 64.9414 56.1308 64.5845 55.4896C64.2276 54.8483 64.1243 54.0964 64.2952 53.3826C64.4661 52.6689 64.8987 52.0453 65.5073 51.6352C66.116 51.225 66.8564 51.0583 67.5821 51.168C67.8371 48.1161 67.3653 45.0472 66.2051 42.2129Z" fill="#475673"/>
<path d="M62.8633 17.209C63.3116 18.3093 63.503 19.4974 63.423 20.6828C63.343 21.8682 62.9937 23.0198 62.4016 24.0499C61.8095 25.08 60.9903 25.9615 60.0062 26.6273C59.0222 27.2931 57.8992 27.7257 56.7228 27.8922C55.5464 28.0586 54.3475 27.9546 53.2174 27.5879C52.0872 27.2213 51.0556 26.6017 50.2009 25.7763C49.3463 24.9509 48.6912 23.9415 48.2854 22.8248C47.8797 21.7081 47.734 20.5135 47.8594 19.332H47.8613C48.0458 17.602 48.8025 15.9831 50.0115 14.7319C51.2204 13.4807 52.8124 12.6689 54.5351 12.4251C56.2577 12.1813 58.0125 12.5195 59.5211 13.3861C61.0298 14.2527 62.206 15.5981 62.8633 17.209Z" fill="#DCBE3F"/>
<path d="M33.918 85.3418C34.3545 86.4142 34.4633 87.5919 34.2306 88.726C33.998 89.8602 33.4343 90.9 32.6109 91.7139C31.7875 92.5279 30.7413 93.0794 29.6045 93.2989C28.4677 93.5184 27.2913 93.396 26.2241 92.9471C25.1569 92.4982 24.2467 91.743 23.6085 90.7769C22.9703 89.8109 22.6329 88.6773 22.6388 87.5196C22.6447 86.3618 22.9937 85.2317 23.6417 84.2722C24.2897 83.3128 25.2075 82.5669 26.2793 82.1289C26.9916 81.8366 27.7547 81.6878 28.5246 81.6912C29.2946 81.6946 30.0563 81.85 30.7661 82.1485C31.4758 82.447 32.1196 82.8828 32.6605 83.4308C33.2014 83.9788 33.6287 84.6282 33.918 85.3418Z" fill="#50A6EA"/>
<path d="M59.2461 18.6855C59.5378 19.401 59.6107 20.1868 59.4558 20.9437C59.3008 21.7006 58.9249 22.3945 58.3755 22.9377C57.8262 23.481 57.1281 23.8491 56.3695 23.9956C55.6109 24.1421 54.826 24.0603 54.1139 23.7607C53.4018 23.461 52.7945 22.9569 52.3689 22.3122C51.9432 21.6674 51.7184 20.9109 51.7227 20.1383C51.727 19.3657 51.9604 18.6118 52.3932 17.9718C52.826 17.3319 53.4389 16.8346 54.1543 16.543C54.6293 16.349 55.1379 16.2506 55.6509 16.2533C56.164 16.256 56.6714 16.3598 57.1443 16.5588C57.6172 16.7578 58.0463 17.0481 58.4069 17.413C58.7675 17.7779 59.0527 18.2103 59.2461 18.6855Z" fill="#FADF4A"/>
<path d="M55.2481 44.2793C55.9893 45.2686 56.5137 46.4032 56.7868 47.6089C57.0599 48.8145 57.0757 50.0643 56.8331 51.2765C56.5906 52.4887 56.0951 53.6361 55.3791 54.6439C54.6631 55.6516 53.7426 56.4971 52.6778 57.125C52.3123 57.3421 51.931 57.5314 51.5371 57.6914C50.0163 58.3118 48.3521 58.4936 46.7331 58.2163C45.1142 57.9389 43.6054 57.2134 42.3778 56.1221C41.1503 55.0308 40.2531 53.6174 39.788 52.0421C39.3229 50.4668 39.3085 48.7927 39.7465 47.2097C40.1845 45.6267 41.0574 44.198 42.2661 43.0858C43.4747 41.9737 44.9709 41.2224 46.5848 40.9173C48.1987 40.6122 49.8658 40.7655 51.3971 41.3597C52.9283 41.954 54.2624 42.9654 55.2481 44.2793Z" fill="#ED6337"/>
<path d="M14.291 65.7871C5.33981 43.8496 15.9062 18.7207 37.8418 9.76954C42.0672 8.04201 46.5419 7.00159 51.0961 6.6877C44.5729 6.23827 38.0337 7.29264 31.9824 9.76954C10.0468 18.7207 -0.519563 43.8496 8.43161 65.7871C11.5179 73.3748 16.7198 79.9157 23.4179 84.6309C24.0392 83.5466 24.9936 82.6917 26.1394 82.193C20.9329 77.7523 16.8695 72.1258 14.291 65.7871Z" fill="#A6B7D0"/>
<path d="M89.0857 32.8779C79.8908 10.3428 54.0764 -0.510746 31.5406 8.68398C9.00488 17.8787 -1.84844 43.6935 7.34648 66.2291C10.3928 73.7116 15.443 80.2095 21.942 85.0086C21.3124 86.6247 21.3025 88.4165 21.9145 90.0395C22.5264 91.6624 23.7168 93.0017 25.2567 93.7998C26.7966 94.5979 28.5772 94.7984 30.256 94.3627C31.9348 93.9271 33.3933 92.886 34.3508 91.4398C42.3569 94.0859 50.9534 94.3836 59.1234 92.2977C67.2934 90.2117 74.6951 85.8294 80.4528 79.6691C86.2105 73.5089 90.0834 65.8284 91.6133 57.5362C93.1432 49.2441 92.2661 40.6873 89.0857 32.8779ZM30.2646 91.8945C29.4063 92.2448 28.4633 92.3326 27.555 92.147C26.6467 91.9613 25.8138 91.5104 25.1617 90.8514C24.5096 90.1924 24.0676 89.3549 23.8915 88.4446C23.7155 87.5344 23.8133 86.5924 24.1726 85.7378C24.5319 84.8831 25.1365 84.1542 25.9101 83.6432C26.6836 83.1322 27.5913 82.8621 28.5184 82.867C29.4455 82.8719 30.3503 83.1515 31.1184 83.6707C31.8866 84.1898 32.4835 84.925 32.8338 85.7834C33.0705 86.3529 33.1917 86.9637 33.1905 87.5804C33.1892 88.1971 33.0655 88.8074 32.8265 89.3759C32.5875 89.9444 32.238 90.4598 31.7982 90.8922C31.3584 91.3245 30.8371 91.6652 30.2646 91.8945ZM86.7277 65.7451C82.6789 75.4096 75.1415 83.1965 65.614 87.5579C56.0865 91.9193 45.2667 92.5358 35.3055 89.2848C35.6953 87.7471 35.5537 86.1228 34.9037 84.6757C34.2537 83.2287 33.1334 82.044 31.725 81.3141C30.3166 80.5842 28.7027 80.352 27.1456 80.6553C25.5886 80.9586 24.1798 81.7794 23.1482 82.9846C17.084 78.454 12.371 72.3547 9.5168 65.3437C0.809765 44.0049 11.0871 19.5607 32.426 10.8541C53.7648 2.14746 78.209 12.4244 86.9156 33.7642C89.0004 38.8426 90.0572 44.284 90.025 49.7735C89.9927 55.263 88.872 60.6916 86.7277 65.7451Z" fill="#284268"/>
<path d="M64.2774 22.5949C64.6038 21.4399 64.6954 20.2313 64.5467 19.0403C64.3981 17.8493 64.0123 16.7003 63.412 15.6609C62.8118 14.6216 62.0094 13.7131 61.0521 12.9891C60.0948 12.2652 59.0022 11.7404 57.8387 11.4459C56.6752 11.1514 55.4644 11.093 54.278 11.2743C53.0916 11.4556 51.9535 11.8728 50.9311 12.5014C49.9086 13.1299 49.0225 13.9571 48.3251 14.9339C47.6277 15.9106 47.1332 17.0173 46.8707 18.1885C43.2593 18.3391 39.7016 19.1166 36.3565 20.4861C20.3286 27.0258 12.6094 45.3857 19.1495 61.4137C24.1104 73.5715 35.8705 80.9486 48.2569 80.948C52.3106 80.9468 56.3254 80.1564 60.0772 78.6211C76.1049 72.0814 83.8241 53.7213 77.2842 37.6935C74.6996 31.384 70.1348 26.0851 64.2774 22.5949ZM53.1213 14.0119C54.3374 13.5157 55.6733 13.3912 56.9601 13.6542C58.2469 13.9172 59.4268 14.5558 60.3506 15.4894C61.2744 16.423 61.9006 17.6096 62.1501 18.8991C62.3995 20.1886 62.261 21.5231 61.752 22.7338C61.243 23.9446 60.3864 24.9772 59.2905 25.7011C58.1947 26.4251 56.9087 26.8078 55.5953 26.8008C54.2819 26.7939 53.0001 26.3977 51.9119 25.6622C50.8237 24.9268 49.9781 23.8852 49.4819 22.6691C49.1479 21.8622 48.9772 20.9972 48.9797 20.1239C48.9821 19.2506 49.1576 18.3865 49.496 17.5815C49.8345 16.7764 50.3291 16.0465 50.9514 15.4338C51.5736 14.8211 52.3111 14.3378 53.1213 14.0119ZM59.1911 76.451C55.6588 77.8924 51.8772 78.6239 48.0622 78.6038C44.2472 78.5836 40.4735 77.8122 36.9567 76.3335C33.4399 74.8548 30.2488 72.6979 27.5656 69.9858C24.8824 67.2738 22.7597 64.0598 21.3188 60.5273C15.2676 45.6971 22.4104 28.7076 37.2416 22.6562C40.2389 21.4288 43.4214 20.7149 46.6557 20.5443C46.7385 22.4758 47.4421 24.3291 48.6621 25.8288C49.882 27.3286 51.5531 28.3948 53.4273 28.8692C55.3014 29.3436 57.2786 29.2008 59.0651 28.462C60.8517 27.7232 62.3522 26.4279 63.344 24.7684C66.2415 26.537 68.8073 28.7988 70.9254 31.4516L64.091 36.4135C61.6629 33.4713 58.4662 31.2603 54.8566 30.0263C51.247 28.7922 47.3658 28.5834 43.6447 29.4232C39.9235 30.2629 36.5082 32.1183 33.7784 34.783C31.0486 37.4477 29.1114 40.8172 28.182 44.5171C27.2527 48.2169 27.3678 52.1019 28.5144 55.7403C29.661 59.3786 31.7942 62.6277 34.6769 65.1262C37.5596 67.6247 41.0787 69.2747 44.843 69.8928C48.6074 70.5109 52.4694 70.0728 55.9996 68.6273C56.1135 68.5809 56.226 68.5322 56.3387 68.484L59.7045 76.2344C59.5334 76.3074 59.3631 76.3807 59.1911 76.451ZM68.7641 54.7461C68.6027 55.131 68.3093 55.4458 67.9366 55.6338C67.5639 55.8218 67.1364 55.8708 66.7309 55.7719C66.7114 55.7621 66.6907 55.7523 66.6696 55.7434C66.5981 55.7145 66.524 55.6927 66.4483 55.6783C66.1833 55.5643 65.9504 55.3868 65.7703 55.1614C65.5901 54.9361 65.4682 54.6699 65.4152 54.3863C65.3623 54.1027 65.38 53.8105 65.4667 53.5353C65.5534 53.2602 65.7065 53.0106 65.9125 52.8086C66.1185 52.6066 66.371 52.4584 66.6478 52.3771C66.9246 52.2958 67.2171 52.2839 67.4996 52.3424C67.7821 52.4009 68.0459 52.528 68.2676 52.7126C68.4894 52.8971 68.6623 53.1334 68.7711 53.4006C68.859 53.6142 68.9037 53.8431 68.9025 54.074C68.9013 54.305 68.8542 54.5334 68.7641 54.7461ZM66.4719 50.0209C66.1712 50.0704 65.8769 50.153 65.5944 50.2672C64.9192 50.5417 64.3295 50.9914 63.8861 51.5698C63.4427 52.1482 63.1616 52.8345 63.0718 53.5578C62.9821 54.2811 63.0869 55.0152 63.3755 55.6845C63.6642 56.3537 64.1261 56.9339 64.7137 57.365C63.164 60.6704 60.6488 63.4284 57.4998 65.2752L54.1477 57.5561C55.9226 56.2368 57.2089 54.3653 57.8047 52.2356C58.4004 50.1058 58.2718 47.8385 57.4391 45.7898C57.2675 45.3708 57.0679 44.9639 56.8416 44.5717L63.5754 39.6828C64.1793 40.6249 64.6962 41.6199 65.1198 42.6557C66.0802 44.9896 66.5408 47.4988 66.4719 50.0217V50.0209ZM55.4411 42.692C54.1929 41.3772 52.6097 40.4279 50.8619 39.9464C49.1142 39.4648 47.2681 39.4693 45.5227 39.9593C43.7773 40.4493 42.1987 41.4063 40.957 42.7271C39.7152 44.048 38.8574 45.6826 38.476 47.4549C38.0945 49.2272 38.2039 51.07 38.7923 52.7847C39.3807 54.4994 40.4258 56.0211 41.815 57.1858C43.2043 58.3505 44.885 59.1141 46.6761 59.3942C48.4672 59.6743 50.3008 59.4605 51.9793 58.7756C52.02 58.759 52.0588 58.7402 52.0991 58.723L55.4026 66.3301C55.3049 66.3715 55.2112 66.4166 55.1133 66.4564C51.9952 67.7267 48.5865 68.1098 45.2642 67.5632C41.9419 67.0167 38.8355 65.5618 36.2886 63.3596C33.7418 61.1574 31.8537 58.2936 30.8332 55.085C29.8127 51.8764 29.6996 48.4481 30.5065 45.1792C31.3133 41.9103 33.0085 38.9284 35.4048 36.5631C37.801 34.1978 40.8047 32.5414 44.0838 31.7771C47.3628 31.0128 50.7894 31.1704 53.9845 32.2325C57.1795 33.2945 60.0186 35.2197 62.1875 37.7949L55.4411 42.692ZM51.0938 56.6064C49.6989 57.1756 48.1666 57.3183 46.6906 57.0166C45.2145 56.7149 43.8612 55.9822 42.8015 54.9113C41.7419 53.8404 41.0236 52.4794 40.7375 51.0002C40.4515 49.5211 40.6104 47.9904 41.1943 46.6016C41.7782 45.2128 42.7607 44.0283 44.0178 43.198C45.2748 42.3676 46.7499 41.9287 48.2564 41.9367C49.7629 41.9446 51.2332 42.3991 52.4814 43.2427C53.7296 44.0863 54.6996 45.2811 55.2688 46.676C56.0296 48.5467 56.0173 50.6428 55.2346 52.5045C54.4519 54.3661 52.9628 55.8414 51.0938 56.6064ZM61.8194 75.2227L58.4405 67.4414C62.1792 65.3202 65.1515 62.0711 66.9323 58.1588C67.0028 58.1625 67.0731 58.1693 67.1436 58.1693C68.0841 58.17 68.9963 57.8473 69.7272 57.2554C70.458 56.6635 70.9632 55.8383 71.158 54.9182C71.3528 53.9981 71.2254 53.0389 70.7971 52.2016C70.3688 51.3643 69.6656 50.6997 68.8055 50.3191C68.9202 47.394 68.4034 44.4785 67.2901 41.7711C66.796 40.5608 66.1888 39.3997 65.4768 38.3033L72.3127 33.3402C73.424 34.9855 74.3626 36.741 75.1137 38.5789C80.7955 52.5047 74.8438 68.3324 61.8196 75.2227H61.8194Z" fill="#284268"/>
<path d="M67.0186 21.2244C67.258 21.3256 67.5153 21.3778 67.7752 21.3781C68.0198 21.3778 68.2619 21.3282 68.4869 21.2322C68.9611 21.0308 69.3367 20.6505 69.5322 20.1738C69.7277 19.6972 69.7274 19.1627 69.5313 18.6863C69.4348 18.4512 69.2929 18.2374 69.1138 18.0572C68.9346 17.877 68.7216 17.7339 68.487 17.6362C68.2524 17.5384 68.0009 17.4879 67.7467 17.4875C67.4926 17.4872 67.2409 17.537 67.006 17.634C66.7712 17.7311 66.5578 17.8735 66.378 18.0532C66.1983 18.2329 66.0558 18.4463 65.9587 18.6811C65.8616 18.916 65.8118 19.1677 65.8121 19.4218C65.8124 19.6759 65.8628 19.9275 65.9605 20.1621C66.0582 20.4002 66.2019 20.6166 66.3835 20.7989C66.565 20.9812 66.7809 21.1258 67.0186 21.2244Z" fill="#284268"/>
<path d="M46.9564 13.3525C47.248 13.4751 47.573 13.4929 47.8761 13.4027C48.1793 13.3126 48.4418 13.1202 48.619 12.8582C48.7961 12.5962 48.877 12.2809 48.8478 11.966C48.8186 11.6511 48.6811 11.3561 48.4588 11.1311C48.2365 10.9062 47.943 10.7653 47.6285 10.7325C47.3139 10.6996 46.9977 10.7768 46.7337 10.9509C46.4697 11.1251 46.2742 11.3853 46.1806 11.6874C46.0869 11.9895 46.1009 12.3147 46.2201 12.6076C46.2877 12.7742 46.3875 12.9258 46.5139 13.0536C46.6403 13.1814 46.7907 13.283 46.9564 13.3525Z" fill="#284268"/>
<path d="M73.2617 49.6701C73.1745 49.4571 73.0311 49.2717 72.8467 49.134C72.6623 48.9962 72.4439 48.9111 72.2149 48.8879C71.9859 48.8647 71.7548 48.9042 71.5465 49.0021C71.3382 49.1001 71.1605 49.2528 71.0323 49.4441C70.9041 49.6353 70.8303 49.8577 70.8188 50.0876C70.8074 50.3175 70.8586 50.5462 70.9671 50.7492C71.0755 50.9523 71.2372 51.122 71.4347 51.2402C71.6322 51.3585 71.8581 51.4208 72.0883 51.4205C72.2518 51.4205 72.4136 51.3886 72.5649 51.3266C72.8761 51.1995 73.1244 50.9543 73.2553 50.6446C73.3863 50.335 73.3892 49.986 73.2635 49.6742L73.2617 49.6701Z" fill="#284268"/>
<path d="M87.6953 80.233C87.4573 80.0332 87.1496 79.9362 86.8399 79.9632C86.5303 79.9903 86.2441 80.1393 86.0444 80.3773C85.517 81.007 84.9619 81.6291 84.3969 82.2266C84.1833 82.4524 84.0683 82.7538 84.0769 83.0645C84.0856 83.3751 84.2174 83.6697 84.4432 83.8832C84.669 84.0967 84.9704 84.2118 85.2811 84.2032C85.5918 84.1945 85.8863 84.0627 86.0998 83.8369C86.6965 83.2061 87.2818 82.5478 87.8399 81.8838C88.0396 81.6457 88.1365 81.338 88.1094 81.0285C88.0823 80.7189 87.9334 80.4328 87.6953 80.233Z" fill="#284268"/>
<path d="M96.4994 60.3176C96.1942 60.2592 95.8783 60.3245 95.6212 60.499C95.3641 60.6735 95.1868 60.943 95.1284 61.2482C94.1873 66.1782 92.3699 70.8995 89.7623 75.1879C89.6825 75.3194 89.6293 75.4654 89.6058 75.6175C89.5824 75.7696 89.5891 75.9249 89.6257 76.0744C89.6622 76.2239 89.7279 76.3647 89.8188 76.4888C89.9098 76.613 90.0243 76.718 90.1559 76.7978C90.2874 76.8777 90.4334 76.9309 90.5855 76.9543C90.7377 76.9778 90.8929 76.971 91.0424 76.9345C91.1919 76.898 91.3327 76.8323 91.4569 76.7413C91.581 76.6504 91.686 76.5358 91.7659 76.4043C94.5183 71.8771 96.4367 66.8931 97.4299 61.6889C97.4883 61.3836 97.4231 61.0677 97.2487 60.8105C97.0742 60.5534 96.8047 60.376 96.4994 60.3176Z" fill="#284268"/>
<path d="M19.3873 10.501C19.6086 10.5009 19.8254 10.438 20.0123 10.3195C20.7721 9.83944 21.5578 9.37812 22.3483 8.94804C22.4845 8.87508 22.605 8.77589 22.7028 8.65617C22.8005 8.53646 22.8737 8.39858 22.9179 8.25049C22.9622 8.1024 22.9767 7.94701 22.9607 7.79328C22.9446 7.63955 22.8983 7.49051 22.8244 7.35475C22.7506 7.21899 22.6505 7.09918 22.5302 7.00223C22.4098 6.90528 22.2714 6.8331 22.123 6.78985C21.9746 6.7466 21.8191 6.73314 21.6655 6.75023C21.5119 6.76732 21.3632 6.81463 21.2279 6.88944C20.3932 7.34374 19.5629 7.83105 18.7604 8.33808C18.5454 8.47373 18.3804 8.67558 18.2902 8.91321C18.2 9.15083 18.1895 9.41133 18.2603 9.65545C18.3311 9.89956 18.4793 10.114 18.6826 10.2666C18.8859 10.4191 19.1333 10.5013 19.3875 10.501H19.3873Z" fill="#284268"/>
<path d="M4.77522 27.3998C7.28677 22.1947 10.8562 17.5706 15.2555 13.8227C15.3737 13.7231 15.471 13.6012 15.5419 13.4639C15.6128 13.3266 15.6559 13.1767 15.6686 13.0227C15.6813 12.8687 15.6634 12.7137 15.616 12.5666C15.5686 12.4196 15.4926 12.2834 15.3923 12.1658C15.292 12.0482 15.1695 11.9517 15.0318 11.8816C14.894 11.8116 14.7438 11.7695 14.5897 11.7578C14.4357 11.746 14.2808 11.7649 14.134 11.8132C13.9873 11.8616 13.8515 11.9384 13.7346 12.0395C9.08851 15.9972 5.31887 20.8804 2.66643 26.3771C2.53081 26.6569 2.51187 26.979 2.61377 27.2727C2.71567 27.5664 2.93006 27.8075 3.20979 27.9432C3.48951 28.0788 3.81164 28.0977 4.10533 27.9958C4.39901 27.8939 4.64019 27.6795 4.7758 27.3998H4.77522Z" fill="#284268"/>
<path d="M53.6622 24.8416C54.7453 25.2967 55.9526 25.3622 57.0786 25.0269C58.2046 24.6917 59.1795 23.9763 59.8372 23.0029C60.4949 22.0294 60.7947 20.858 60.6856 19.6882C60.5764 18.5185 60.0651 17.4228 59.2386 16.5878C58.4122 15.7528 57.3218 15.2302 56.1532 15.109C54.9847 14.9878 53.8102 15.2755 52.83 15.9232C51.8498 16.5708 51.1245 17.5383 50.7776 18.6607C50.4308 19.7832 50.4838 20.9912 50.9278 22.0789C51.1792 22.6968 51.5502 23.2589 52.0194 23.733C52.4886 24.2071 53.0469 24.5838 53.6622 24.8416ZM54.5971 17.6287C55.0978 17.4244 55.6479 17.3731 56.1778 17.4814C56.7076 17.5897 57.1934 17.8527 57.5738 18.2371C57.9542 18.6216 58.2121 19.1101 58.3148 19.6411C58.4175 20.1721 58.3605 20.7216 58.1509 21.2201C57.9413 21.7186 57.5886 22.1438 57.1373 22.4419C56.6861 22.74 56.1566 22.8976 55.6158 22.8948C55.075 22.8919 54.5472 22.7288 54.0991 22.426C53.651 22.1231 53.3028 21.6943 53.0985 21.1935C52.9611 20.8613 52.891 20.5051 52.892 20.1455C52.8931 19.786 52.9654 19.4302 53.1047 19.0988C53.2441 18.7673 53.4477 18.4667 53.7039 18.2144C53.96 17.9621 54.2636 17.763 54.5971 17.6287Z" fill="#284268"/>
</svg>
