<svg width="161" height="160" viewBox="0 0 161 160" fill="none" xmlns="http://www.w3.org/2000/svg">
<path d="M75.532 109.563L63.907 97.8125L41.407 97.8438L29.8132 109.563L41.532 120.688L36.407 126.406L42.157 132.125C44.907 134.875 46.4382 138.562 46.4382 142.437V155H58.3445V143.031C58.3445 139.156 59.8757 135.438 62.6257 132.719L68.9382 126.406L63.8132 120.688L75.532 109.563Z" fill="#3090FC"/>
<path d="M41.907 102.906C42.7195 106.312 44.4382 109.469 46.907 111.969L52.657 117.812L58.407 111.969C60.8757 109.469 62.6257 106.344 63.407 102.906H41.907Z" fill="#6D7486"/>
<path d="M80.9695 49.125C80.3445 47.4062 78.7195 46.25 76.9695 46.2187H75.907V37.3437C75.907 34.0937 74.8132 30.9375 72.8132 28.3437C70.907 25.875 69.907 22.8125 69.907 19.6875V17.2187C68.4695 15.5625 66.782 14.125 64.9382 12.9688L64.8445 13.0938V16.7812C64.8445 21.6875 60.907 25.6562 56.0007 25.6562H49.3445C44.4695 25.6562 40.5007 21.6875 40.5007 16.7812V13.125L40.4695 13.0625C38.6882 14.2187 37.0632 15.625 35.657 17.2187L35.6257 20.8437C35.6257 23.4687 34.7195 25.9687 33.0632 27.9687C30.8445 30.5937 29.6257 33.9375 29.6257 37.375V46.25H28.4695C26.0632 46.25 24.1257 48.1875 24.1257 50.5937C24.1257 53 26.0632 54.9375 28.4695 54.9375H29.6257L32.9382 70.4687C34.032 75.5937 37.0945 80.0625 41.4695 82.9687C42.5007 83.6562 43.5945 84.25 44.7195 84.7187C45.1882 84.9062 45.657 85.0937 46.1257 85.25C47.6882 85.75 49.1882 86.4375 50.6882 87.0938C51.907 87.7188 53.3757 87.6875 54.5945 87.0625C56.032 86.3437 57.5007 85.7187 59.0007 85.1875L60.4382 84.625C61.6257 84.1562 62.7507 83.5312 63.8132 82.8437C68.2507 79.9687 71.3445 75.4375 72.4382 70.2812L75.7195 54.9062H76.8757C77.3757 54.9062 77.8445 54.8125 78.3132 54.6562C80.5945 53.8437 81.7507 51.375 80.9695 49.125Z" fill="#FFD8B7"/>
<path d="M50.7193 82.9062C46.4068 80 43.3756 75.5625 42.2818 70.4688L41.1568 65.1562L38.9693 37.4062C38.9693 33.9688 40.1881 30.625 42.4068 28C43.3443 26.9062 44.0318 25.625 44.4693 24.2188C41.9693 22.5938 40.4381 19.7812 40.4381 16.7812V13.0938L40.4068 13.0312C38.6256 14.1875 37.0006 15.5937 35.5943 17.1875L35.5631 20.8125C35.5631 23.4062 34.6568 25.9375 33.0006 27.9375C30.7818 30.5625 29.5631 33.9062 29.5631 37.3438V46.2188H28.4068C27.2506 46.2188 26.1568 46.6875 25.3443 47.5C24.9381 47.9062 24.6256 48.375 24.4068 48.9062C23.5006 51.125 24.5631 53.6563 26.7818 54.5625C27.3131 54.7813 27.8443 54.875 28.4068 54.875H29.5631L32.8756 70.4062C33.9693 75.5312 37.0318 80.0312 41.4068 82.9062C41.4381 82.9062 41.4381 82.9375 41.4693 82.9375H41.4381L41.4068 82.9688V98.5312C41.4068 100 41.5631 101.438 41.9068 102.875C45.5006 108.812 53.2193 110.719 59.1568 107.125C60.9068 106.062 62.3443 104.625 63.4068 102.875C63.7506 101.438 63.9068 100 63.9068 98.5312V82.6562L50.7193 82.9062Z" fill="#EFC597"/>
<path d="M123.813 71.25C139.864 71.25 152.876 58.2383 152.876 42.1875C152.876 26.1367 139.864 13.125 123.813 13.125C107.762 13.125 94.7507 26.1367 94.7507 42.1875C94.7507 58.2383 107.762 71.25 123.813 71.25Z" fill="#E4416C"/>
<path d="M151.844 70.4063C152.657 71.2188 153.657 71.8438 154.751 72.2188C152.532 72.9688 150.782 74.7188 150.063 76.9375C149.313 74.7188 147.594 72.9688 145.376 72.2188C147.594 71.4688 149.344 69.7188 150.063 67.5C150.407 68.5938 151.032 69.5938 151.844 70.4063Z" fill="#D8FF33"/>
<path d="M139.251 84C139.907 84 140.438 83.4683 140.438 82.8125C140.438 82.1567 139.907 81.625 139.251 81.625C138.595 81.625 138.063 82.1567 138.063 82.8125C138.063 83.4683 138.595 84 139.251 84Z" fill="#D8FF33"/>
<path d="M108.626 7.25C109.247 7.25 109.751 6.74632 109.751 6.125C109.751 5.50368 109.247 5 108.626 5C108.004 5 107.501 5.50368 107.501 6.125C107.501 6.74632 108.004 7.25 108.626 7.25Z" fill="#D8FF33"/>
<path d="M101.188 126.406V155H58.3132V143.031C58.3132 139.156 59.8445 135.438 62.5945 132.719L68.907 126.406L63.782 120.688L75.5007 109.563L63.907 97.8125H72.657C88.407 97.8125 101.188 110.625 101.188 126.406Z" fill="#E5F5FD"/>
<path d="M98.407 13.1875C99.1882 13.9688 100.126 14.5625 101.188 14.9062C99.0632 15.625 97.407 17.2812 96.6882 19.4062C95.9695 17.2812 94.3132 15.5938 92.1882 14.9062C94.3132 14.1875 95.9695 12.5312 96.6882 10.4062C97.032 11.4687 97.6257 12.4063 98.407 13.1875Z" fill="#D8FF33"/>
<path d="M80.9695 35.0625V49.1562C80.3757 47.4375 78.7195 46.25 76.8757 46.25H75.8132V37.375C75.8132 34.125 74.7194 30.9375 72.7194 28.375C70.8132 25.9062 69.7819 22.8437 69.8132 19.7187V17.25C76.6257 20.5312 80.9695 27.4687 80.9695 35.0625Z" fill="#D8A43D"/>
<path d="M46.4382 142.437V155H4.12573V126.406C4.12573 110.625 16.907 97.8125 32.657 97.8125H41.407V97.8438L29.8132 109.563L41.532 120.688L36.407 126.406L42.157 132.125C44.8757 134.844 46.4382 138.562 46.4382 142.437Z" fill="#E5F5FD"/>
<path d="M35.5945 17.2188L35.5632 20.8437C35.5632 23.4375 34.657 25.9688 33.0007 27.9688C30.782 30.5938 29.5632 33.9375 29.5632 37.375V46.25H28.407C27.2507 46.25 26.157 46.7188 25.3445 47.5313C24.9382 47.9375 24.6257 48.4063 24.407 48.9375V35.0625C24.4382 27.4688 28.7507 20.5313 35.5945 17.2188Z" fill="#D8A43D"/>
<path d="M147.469 42C148.626 45 147.094 48.375 144.094 49.5C141.094 50.6562 137.719 49.125 136.594 46.125C135.438 43.125 136.969 39.75 139.969 38.625C140.626 38.375 141.344 38.25 142.032 38.25C144.438 38.25 146.594 39.7187 147.469 42Z" fill="#FADF4A"/>
<path d="M63.3132 60.4688C67.6107 60.4688 71.0945 56.971 71.0945 52.6562C71.0945 48.3415 67.6107 44.8438 63.3132 44.8438C59.0158 44.8438 55.532 48.3415 55.532 52.6562C55.532 56.971 59.0158 60.4688 63.3132 60.4688Z" fill="#6D7486"/>
<path d="M63.0632 69.8437V71.6875H62.782C60.7507 71.6875 58.8132 70.7812 57.5007 69.25L55.8445 70.7187C54.032 72.3125 51.282 72.1562 49.6882 70.375C49.5945 70.2812 49.532 70.1875 49.4382 70.0937L48.4695 68.7812L48.2195 69.1875C47.2195 70.75 45.4695 71.7187 43.6257 71.7187V69.875C43.6257 66.8437 46.0632 64.4062 49.0945 64.4062H57.657C60.6257 64.375 63.0632 66.8125 63.0632 69.8437Z" fill="#D8A43D"/>
<path d="M41.407 60.4688C45.7045 60.4688 49.1882 56.971 49.1882 52.6562C49.1882 48.3415 45.7045 44.8438 41.407 44.8438C37.1095 44.8438 33.6257 48.3415 33.6257 52.6562C33.6257 56.971 37.1095 60.4688 41.407 60.4688Z" fill="#6D7486"/>
<path d="M41.407 97.8125H32.657C16.907 97.8125 4.12573 110.625 4.12573 126.406V155H13.5007V126.406C13.5007 110.875 25.8757 98.1875 41.407 97.8125Z" fill="#A6B7D0"/>
<path d="M104.126 42.1875C104.126 27.9375 114.438 15.8125 128.501 13.5C112.657 10.9375 97.7195 21.6875 95.157 37.5C92.5945 53.3125 103.313 68.2812 119.157 70.8437C122.251 71.3437 125.407 71.3437 128.501 70.8437C114.438 68.5625 104.126 56.4375 104.126 42.1875Z" fill="#FF5F91"/>
<path d="M64.9382 12.9687L64.8445 13.0937V16.75C64.8445 21.6875 60.8757 25.6562 55.9695 25.6562H49.282C44.3445 25.6562 40.3757 21.6875 40.407 16.75V13.0937L40.3757 13.0312C47.8757 8.28125 57.4382 8.25 64.9382 12.9687Z" fill="#D8A43D"/>
<path d="M91.5945 16.7188C93.157 17.25 94.3757 18.4688 94.907 20.0313C95.1882 20.7813 95.8757 21.3125 96.6882 21.3125C97.5007 21.3125 98.2195 20.7813 98.4695 20.0313C99.0007 18.4688 100.219 17.2188 101.782 16.7188C102.751 16.4063 103.282 15.3438 102.969 14.3438C102.782 13.7813 102.344 13.3438 101.782 13.1563C100.219 12.625 99.0007 11.4063 98.4695 9.84376C98.157 8.87501 97.0945 8.34376 96.0945 8.65626C95.532 8.84376 95.0945 9.28126 94.907 9.84376C94.3757 11.4063 93.157 12.6563 91.5945 13.1563C90.6257 13.5 90.0945 14.5313 90.407 15.5313C90.5945 16.0938 91.032 16.5313 91.5945 16.7188ZM96.6882 14.0938C96.9382 14.375 97.2195 14.6563 97.5007 14.9063C97.2195 15.1563 96.9382 15.4375 96.6882 15.7188C96.4382 15.4375 96.157 15.1563 95.8757 14.9063C96.157 14.6563 96.4382 14.4063 96.6882 14.0938Z" fill="#284268"/>
<path d="M155.344 70.4375C153.688 69.875 152.376 68.5625 151.844 66.9062C151.532 65.9375 150.469 65.4062 149.469 65.7187C148.907 65.9062 148.469 66.3437 148.282 66.9062C147.719 68.5625 146.438 69.875 144.782 70.4375C143.813 70.75 143.282 71.8125 143.594 72.8125C143.782 73.375 144.219 73.8125 144.782 74C146.438 74.5625 147.751 75.875 148.282 77.5312C148.594 78.5 149.657 79.0312 150.657 78.7187C151.219 78.5312 151.657 78.0937 151.844 77.5312C152.407 75.875 153.688 74.5625 155.344 74C156.313 73.6875 156.844 72.625 156.532 71.625C156.344 71.0625 155.907 70.625 155.344 70.4375ZM150.063 73.1875C149.751 72.8437 149.438 72.5 149.063 72.1875C149.407 71.875 149.751 71.5625 150.063 71.1875C150.376 71.5312 150.688 71.875 151.063 72.1875C150.688 72.5312 150.344 72.8437 150.063 73.1875Z" fill="#284268"/>
<path d="M139.251 79.75C137.563 79.75 136.188 81.125 136.188 82.8125C136.188 84.5 137.563 85.875 139.251 85.875C140.938 85.875 142.313 84.5 142.313 82.8125C142.282 81.125 140.938 79.75 139.251 79.75Z" fill="#284268"/>
<path d="M71.6257 136.406C71.6257 137.438 72.4695 138.281 73.5007 138.281H92.6257C93.657 138.281 94.5007 137.438 94.5007 136.406C94.5007 135.375 93.657 134.531 92.6257 134.531H73.5007C72.4695 134.531 71.6257 135.375 71.6257 136.406Z" fill="#284268"/>
<path d="M57.6257 62.5H49.0632C45.0007 62.5 41.7195 65.7812 41.7195 69.8437V71.6875C41.7195 72.7187 42.5632 73.5625 43.5945 73.5625C45.3757 73.5625 47.0945 72.9375 48.407 71.75C49.5007 72.9063 50.9695 73.5938 52.532 73.6875H52.907C54.4382 73.6875 55.907 73.125 57.0632 72.125L57.4382 71.7812C58.9695 72.9375 60.8445 73.5625 62.7507 73.5625H63.032C64.0632 73.5625 64.907 72.7187 64.907 71.6875V69.8437C64.9382 65.7812 61.657 62.5 57.6257 62.5ZM58.9382 68.0312C58.2507 67.25 57.0945 67.1562 56.282 67.8125L56.2507 67.8438L54.5945 69.3125C54.0945 69.75 53.4382 69.9688 52.782 69.9375C52.0632 69.9063 51.3757 69.5313 50.9382 68.9375L49.9695 67.625C49.6257 67.1562 49.0632 66.875 48.4695 66.875C48.4382 66.875 48.4382 66.875 48.407 66.875C47.782 66.9062 47.2195 67.2188 46.907 67.75L46.657 68.1563C46.3757 68.5938 46.0007 68.9688 45.532 69.25C45.8132 67.5 47.3132 66.25 49.0632 66.25H57.6257C59.5007 66.25 61.0632 67.6875 61.1882 69.5625C60.3132 69.25 59.532 68.7187 58.9382 68.0312Z" fill="#284268"/>
<path d="M55.0945 76.4062H50.2195C49.1882 76.4062 48.3445 77.25 48.3445 78.2812C48.3445 79.3125 49.1882 80.1562 50.2195 80.1562H55.0945C56.1257 80.1562 56.9695 79.3125 56.9695 78.2812C56.9695 77.25 56.1257 76.4062 55.0945 76.4062Z" fill="#284268"/>
<path d="M46.5321 51.125C46.5321 51.0938 46.5321 51.0625 46.5321 51.0313C46.5321 50 45.6883 49.1562 44.6571 49.1562C43.6258 49.1562 42.7821 50 42.7821 51.0313C42.7821 51.8125 42.1571 52.4687 41.3758 52.4687C40.5946 52.4687 39.9383 51.8437 39.9383 51.0625V51.0313C39.9383 50 39.0946 49.1562 38.0633 49.1562C37.0321 49.1562 36.1883 50 36.1883 51.0313C36.1571 53.9063 38.4696 56.2188 41.3133 56.25C44.1883 56.2813 46.5321 54 46.5321 51.125Z" fill="#284268"/>
<path d="M63.3133 56.25C66.1883 56.2812 68.5008 53.9687 68.5321 51.125C68.5321 51.0938 68.5321 51.0625 68.5321 51.0312C68.5321 50 67.6883 49.1562 66.6571 49.1562C65.6258 49.1562 64.7821 50 64.7821 51.0312C64.7821 51.8125 64.1571 52.4687 63.3758 52.4687C62.5946 52.4687 61.9383 51.8437 61.9383 51.0625V51.0312C61.9383 50 61.0946 49.1562 60.0633 49.1562C59.0321 49.1562 58.1883 50 58.1883 51.0312C58.1571 53.9062 60.4383 56.25 63.3133 56.25Z" fill="#284268"/>
<path d="M43.2507 62.1562C47.0944 61.4062 50.1257 58.375 50.8757 54.5312H53.8132C54.8444 59.7812 59.9382 63.1562 65.1882 62.125C70.4382 61.0937 73.8132 56 72.7819 50.75C71.8757 46.2187 67.9069 42.9688 63.3132 42.9688C58.6882 42.9688 54.7194 46.25 53.8132 50.7812H50.8757C49.8444 45.5312 44.7507 42.125 39.5007 43.1563C34.2507 44.1875 30.8444 49.2812 31.8757 54.5312C32.9069 59.7812 38.0007 63.1875 43.2507 62.1562ZM63.2819 46.7187C66.5632 46.7187 69.2194 49.375 69.2194 52.625C69.2194 55.9062 66.5632 58.5625 63.3132 58.5625C60.0319 58.5625 57.3757 55.9062 57.3757 52.6562C57.3444 49.4062 60.0007 46.7187 63.2819 46.7187ZM35.4382 52.6562C35.4382 49.375 38.0944 46.7187 41.3444 46.7187C44.5944 46.7187 47.2819 49.375 47.2819 52.625C47.2819 55.9062 44.6257 58.5625 41.3757 58.5625C38.1257 58.5937 35.4694 55.9375 35.4382 52.6562Z" fill="#284268"/>
<path d="M38.3445 40.3438C39.2507 39.7188 40.3132 39.4063 41.3757 39.4063C43.4695 39.4063 45.3757 40.625 46.282 42.5C46.7195 43.4375 47.8445 43.8438 48.782 43.4063C49.7195 42.9688 50.1258 41.8438 49.6883 40.9063C49.6883 40.9063 49.6882 40.875 49.657 40.875C48.1257 37.7188 44.907 35.6875 41.3757 35.6562C39.532 35.6562 37.7507 36.2188 36.2195 37.25C35.3757 37.8438 35.1257 39 35.7195 39.8438C36.3445 40.6875 37.5007 40.9063 38.3445 40.3438Z" fill="#284268"/>
<path d="M55.8445 43.2813C56.8132 43.6875 57.907 43.2188 58.282 42.2813C59.1258 40.25 61.0945 38.9375 63.282 38.9375C64.157 38.9375 65.0007 39.125 65.7507 39.5313C66.657 40 67.8132 39.6563 68.282 38.75C68.7507 37.8438 68.407 36.6875 67.5007 36.2188H67.4695C62.9695 33.9063 57.4383 35.6875 55.0945 40.1875C54.9695 40.4063 54.8758 40.625 54.782 40.8438C54.4383 41.7813 54.907 42.875 55.8445 43.2813Z" fill="#284268"/>
<path d="M72.6257 95.9375H65.7507V83.7813C70.032 80.625 73.0945 76 74.2507 70.6875L77.2195 56.7813C80.4695 56.5938 83.0632 53.875 83.0632 50.5938C83.0632 50 82.9695 49.4062 82.8132 48.875V35.0938C82.8132 26.9688 78.157 19.4063 70.9382 15.7188C66.282 10.5625 59.6257 7.59375 52.657 7.59375C45.6882 7.59375 39.032 10.5625 34.3445 15.75C27.1882 19.4063 22.5632 26.9375 22.5632 35.0625V48.625C22.3445 49.25 22.2507 49.9062 22.2507 50.5938C22.2507 53.9062 24.8445 56.5938 28.0945 56.7813L31.0945 70.8438C32.2195 76.1563 35.282 80.7813 39.5632 83.9375V95.9375H32.6882C15.907 95.9375 2.25073 109.594 2.25073 126.406V155C2.25073 156.031 3.09448 156.875 4.12573 156.875H101.188C102.219 156.875 103.063 156.031 103.063 155V126.406C103.063 109.594 89.407 95.9375 72.6257 95.9375ZM79.0945 35.0625V44.7813C78.657 44.625 78.1882 44.4688 77.6882 44.4063V37.3438C77.6882 33.6875 76.4695 30.0625 74.2195 27.1875C72.7507 25.3125 71.907 22.9688 71.7195 20.5313C76.282 23.875 79.0945 29.3125 79.0945 35.0625ZM42.282 14.0938C45.407 12.3125 48.9695 11.3125 52.657 11.3125C56.282 11.3125 59.782 12.25 62.8757 14V16.75C62.8757 20.5938 59.7507 23.75 55.907 23.75H49.2507C45.407 23.75 42.282 20.625 42.282 16.75V14.0938ZM26.282 35.0625C26.3132 29.3125 29.1257 23.875 33.6882 20.5313V20.8438C33.6882 23.0625 32.9382 25.1563 31.5632 26.75C29.0632 29.6875 27.6882 33.4688 27.6882 37.375V44.4375C27.1882 44.5 26.7195 44.625 26.282 44.7813V35.0625ZM34.7507 70.0313L31.4382 54.5C31.2507 53.625 30.5007 53.0313 29.5945 53.0313H28.4382C27.0945 53.0313 26.0007 51.9375 26.0007 50.5625C26.0007 49.1875 27.0945 48.0938 28.4382 48.0938H29.5945C30.6257 48.0938 31.4695 47.25 31.4695 46.2188V37.3438C31.4695 34.3438 32.532 31.4375 34.4382 29.1563C36.3757 26.875 37.4382 23.9375 37.4382 20.8438V17.9063C37.782 17.5313 38.157 17.1875 38.532 16.8438C38.5945 22.7188 43.3757 27.5 49.2507 27.5H55.907C61.8132 27.5 66.6257 22.6875 66.6257 16.75V16.6875C67.0632 17.0938 67.5007 17.5 67.907 17.9375V19.6875C67.907 23.25 69.0945 26.7188 71.2195 29.5C72.9382 31.75 73.907 34.5313 73.907 37.375V46.25C73.907 47.2813 74.7507 48.125 75.782 48.125H76.8445C78.1882 48.125 79.282 49.2188 79.282 50.5938C79.282 51.9688 78.1882 53.0625 76.8445 53.0625H75.6882C74.8132 53.0625 74.032 53.6875 73.8445 54.5313L70.5632 69.9063C69.3132 75.7813 65.2507 80.6562 59.6882 82.9062L53.7507 85.375C53.3132 85.5625 52.9382 85.6875 52.5632 85.6875C52.2195 85.6875 51.8132 85.5938 51.407 85.4062L45.3757 82.9688C39.9695 80.6563 35.9695 75.8438 34.7507 70.0313ZM61.9695 86.0312L61.657 102.156C59.6882 105.25 56.3445 107.094 52.657 107.094C48.9695 107.094 45.657 105.25 43.657 102.156L43.3445 86.1563L49.907 88.7813C50.8132 89.1875 51.7195 89.375 52.5945 89.375C53.5007 89.375 54.4382 89.1563 55.3757 88.7188L61.9695 86.0312ZM44.5945 153.125H6.00073V126.406C6.00073 111.656 17.9695 99.6875 32.6882 99.6875H36.9382L28.4695 108.25C28.1257 108.594 27.907 109.094 27.9382 109.594C27.9382 110.094 28.157 110.563 28.532 110.938L38.9382 120.813L35.032 125.188C34.3757 125.938 34.407 127.063 35.0945 127.781L40.8445 133.5C43.2507 135.906 44.5945 139.094 44.5945 142.5V153.125ZM50.782 153.125H48.3132V142.438C48.3132 138.031 46.5945 133.906 43.4695 130.781L39.0007 126.313L42.9382 121.906C43.6257 121.156 43.5632 120 42.8445 119.281L32.5007 109.469L39.8445 102.031C40.5632 106.25 42.532 110.125 45.5632 113.219L50.782 118.531V153.125ZM47.5632 109.906C49.157 110.5 50.8757 110.844 52.6882 110.844C54.4695 110.844 56.1882 110.531 57.8132 109.906L52.7195 115.156L47.5632 109.906ZM56.4382 153.125H54.532V118.594L59.7507 113.281C62.8132 110.188 64.782 106.281 65.4695 102.063L72.8445 109.5L62.5007 119.313C61.7507 120 61.7195 121.156 62.407 121.938L66.3445 126.344L61.282 131.406C58.157 134.5 56.4382 138.656 56.4382 143.063V153.125ZM99.3445 153.125H60.1882V143.031C60.1882 139.625 61.5007 136.438 63.907 134.031L70.2195 127.719C70.9382 127 70.9695 125.875 70.282 125.125L66.3757 120.75L76.782 110.875C77.157 110.531 77.3445 110.063 77.3757 109.531C77.3757 109.031 77.1882 108.531 76.8445 108.188L68.407 99.6875H72.657C87.3757 99.6875 99.3445 111.688 99.3445 126.406V153.125Z" fill="#284268"/>
<path d="M155.532 41.75C155.501 40.6562 155.47 39.5625 155.345 38.5C155.251 37.4687 154.345 36.7187 153.313 36.8125C152.282 36.9062 151.532 37.8125 151.626 38.8437V38.9062C153.22 54.0937 142.22 67.7187 127.032 69.3125C125.313 69.5 123.595 69.5 121.876 69.375C120.845 69.2812 119.938 70.0312 119.845 71.0625C119.751 72.0937 120.501 73 121.532 73.0937H121.563C122.438 73.1562 123.282 73.1875 124.157 73.1875C141.501 73.1562 155.532 59.0937 155.532 41.75Z" fill="#284268"/>
<path d="M143.626 22.0937C143.626 22.125 143.657 22.1562 143.657 22.1875C144.97 23.5 146.157 24.9688 147.188 26.5312C147.751 27.4062 148.907 27.6562 149.782 27.0937C150.657 26.5312 150.907 25.375 150.345 24.5L150.313 24.4688C149.157 22.6875 147.813 21.0625 146.313 19.5625C134.126 7.28125 114.282 7.25 102.032 19.4375C102.001 19.4688 101.97 19.5 101.97 19.5C89.6883 31.8125 89.7195 51.75 102.063 64.0312C103.595 65.5625 105.251 66.9062 107.063 68.0937C107.938 68.6562 109.095 68.4062 109.657 67.5625C110.22 66.6875 109.97 65.5312 109.126 64.9687C96.3133 56.5937 92.7195 39.4062 101.095 26.5625C102.126 24.9687 103.313 23.5 104.657 22.1562C115.407 11.375 132.845 11.3438 143.626 22.0937Z" fill="#284268"/>
<path d="M105.907 55.625C106.501 56.4687 107.688 56.6562 108.532 56.0625C109.376 55.4687 109.563 54.2812 108.969 53.4375L108.938 53.4062C108.563 52.9062 108.219 52.4062 107.907 51.875C107.376 51 106.219 50.7187 105.344 51.25C104.469 51.7812 104.188 52.9375 104.719 53.8125C105.094 54.4375 105.501 55.0312 105.907 55.625Z" fill="#284268"/>
<path d="M104.657 30.5625C103.688 30.2188 102.626 30.75 102.282 31.75C100.626 36.625 100.438 41.9063 101.751 46.875C102.001 47.875 103.032 48.4688 104.032 48.2188C105.032 47.9688 105.626 46.9375 105.376 45.9375C104.251 41.6563 104.407 37.1563 105.813 32.9688C106.157 31.9688 105.626 30.9063 104.657 30.5625Z" fill="#284268"/>
<path d="M108.626 9.125C110.283 9.125 111.626 7.78185 111.626 6.125C111.626 4.46815 110.283 3.125 108.626 3.125C106.969 3.125 105.626 4.46815 105.626 6.125C105.626 7.78185 106.969 9.125 108.626 9.125Z" fill="#284268"/>
<path d="M100.313 76.75C111.219 76.75 126.469 65.3438 137.126 54.6562C137.938 53.8438 138.813 52.9375 139.657 52.0625C140.313 52.25 141.032 52.3438 141.751 52.3438C146.219 52.3438 149.813 48.7187 149.813 44.2812C149.813 43.5312 149.719 42.7812 149.501 42.0937C149.438 41.8437 149.344 41.5938 149.251 41.3438C149.188 41.1875 149.126 41.0312 149.063 40.875C159.438 26.625 161.938 15.625 156.094 9.75C151.469 5.15625 144.376 6.59375 139.219 8.625C138.251 9 137.782 10.0938 138.157 11.0625C138.532 12.0312 139.626 12.5 140.594 12.125H140.626C146.594 9.78125 150.876 9.875 153.438 12.4375C157.594 16.625 155.032 26.0625 146.626 37.8437C145.282 36.8125 143.563 36.1875 141.751 36.1875C137.282 36.1875 133.688 39.8125 133.688 44.25C133.688 46.5938 134.688 48.7188 136.313 50.1875C135.719 50.8125 135.126 51.4062 134.501 52.0312C121.782 64.7812 108.376 73.0312 100.344 73.0312C98.0632 73.0312 96.282 72.375 94.9695 71.0625C91.657 67.7188 93.1569 61.7813 95.0007 57.375C95.4069 56.4375 94.9695 55.3125 94.0007 54.9062C93.032 54.5 91.9382 54.9375 91.532 55.9062C89.2195 61.375 87.5007 68.9062 92.282 73.6875C94.3132 75.7188 97.0319 76.75 100.313 76.75ZM141.719 40.0938C144.063 40.0938 146.001 41.9687 146.032 44.3437V44.375C146.032 46.7188 144.157 48.6562 141.782 48.6562C139.407 48.6562 137.501 46.7812 137.469 44.4062C137.438 42.0625 139.344 40.125 141.719 40.0938Z" fill="#284268"/>
</svg>
