<svg width="30" height="30" viewBox="0 0 30 30" fill="none" xmlns="http://www.w3.org/2000/svg">
<path d="M26.4047 2.32499C28.2059 4.12733 27.4459 7.391 25.3834 10.9558V10.9564C24.7233 12.085 23.9973 13.1736 23.209 14.2166L23.2084 14.2172C22.8961 13.7722 22.4387 13.4499 21.9147 13.3055C23.0291 11.8201 23.9356 10.3898 24.5959 9.08964C25.9154 6.48866 26.2494 4.40741 25.2867 3.44354C24.324 2.47968 22.2434 2.81425 19.6441 4.13553C19.0466 3.81926 18.4228 3.55538 17.7797 3.34686C21.3422 1.28319 24.6035 0.522058 26.4047 2.32499Z" fill="#FFE578"/>
<path d="M25.3834 10.9565C26.0619 13.0386 26.1512 15.2678 25.6412 17.3975C25.1313 19.5272 24.042 21.4743 22.4941 23.0233C20.9461 24.5723 18.9997 25.6629 16.8704 26.1742C14.741 26.6856 12.5117 26.5978 10.4291 25.9207C13.2106 24.31 16.1754 21.9047 18.7729 19.3055C19.2961 18.7822 19.8111 18.2438 20.3133 17.6953V17.6947C20.7366 17.8893 21.2083 17.9532 21.6682 17.8785C22.128 17.8037 22.5552 17.5936 22.8951 17.275C23.235 16.9564 23.4723 16.5438 23.5766 16.0897C23.6809 15.6357 23.6476 15.1608 23.4809 14.7258C23.4118 14.5455 23.3203 14.3746 23.2084 14.2172L23.209 14.2166C23.9973 13.1736 24.7233 12.085 25.3834 10.9565Z" fill="#A0EAEA"/>
<path d="M24.5982 25.5158C24.829 25.7473 25.1107 25.9217 25.4209 26.025C25.1108 26.1284 24.8291 26.3026 24.598 26.5337C24.367 26.7649 24.1929 27.0467 24.0896 27.3568C23.9864 27.0467 23.8123 26.7649 23.5812 26.5338C23.3502 26.3026 23.0684 26.1284 22.7584 26.025C23.0684 25.9213 23.3501 25.747 23.5811 25.5157C23.8122 25.2845 23.9863 25.0027 24.0896 24.6926C24.1931 25.0027 24.3672 25.2845 24.5982 25.5158Z" fill="#604AF3"/>
<path d="M2.85295 18.3955C2.15667 16.3113 2.05263 14.0748 2.55241 11.935C3.0522 9.79517 4.1362 7.83611 5.68366 6.27601C7.23112 4.71592 9.1813 3.61603 11.317 3.09886C13.4526 2.58168 15.69 2.66754 17.7797 3.34685C18.4228 3.55537 19.0466 3.81925 19.6442 4.13552C21.7527 5.25479 23.4773 6.98042 24.5953 9.08963H24.5959C23.9356 10.3898 23.0291 11.8201 21.9147 13.3054C21.4806 13.1868 21.0215 13.1955 20.5922 13.3307C20.163 13.4658 19.7817 13.7217 19.4939 14.0676C19.206 14.4136 19.0238 14.835 18.969 15.2817C18.9142 15.7284 18.9891 16.1814 19.1848 16.5867C18.6961 17.1205 18.1862 17.6537 17.6549 18.1863C14.5114 21.3316 11.2588 23.7621 8.56467 25.1314C6.45593 24.0124 4.7314 22.2864 3.61409 20.1767C3.31167 19.605 3.05709 19.0092 2.85295 18.3955Z" fill="#A0EAEA"/>
<path d="M23.4808 14.7258C23.6973 15.2855 23.6922 15.9067 23.4665 16.4627C23.2408 17.0187 22.8115 17.4677 22.2661 17.7181C21.7208 17.9685 21.1004 18.0015 20.5316 17.8103C19.9628 17.6191 19.4883 17.2181 19.205 16.6892C18.9216 16.1602 18.8506 15.543 19.0066 14.9636C19.1626 14.3841 19.5337 13.8859 20.0443 13.5707C20.5549 13.2554 21.1665 13.1467 21.7545 13.2669C22.3424 13.387 22.8624 13.7269 23.2084 14.2172C23.3202 14.3746 23.4118 14.5455 23.4808 14.7258Z" fill="#FE8700"/>
<path d="M20.3133 17.6947V17.6953C19.8111 18.2438 19.2961 18.7822 18.7729 19.3055C16.1754 21.9047 13.2106 24.31 10.4291 25.9207C6.86662 27.9844 3.60587 28.7449 1.80412 26.9426C0.0468887 25.1836 0.902943 21.8596 2.85294 18.3955C3.05708 19.0093 3.31166 19.605 3.61408 20.1768C2.29337 22.7783 1.95997 24.8602 2.92267 25.8235C3.88537 26.7867 5.96544 26.4527 8.56466 25.1315C11.2588 23.7621 14.5113 21.3317 17.6549 18.1863C18.1858 17.6549 18.6957 17.1217 19.1848 16.5867C19.4216 17.0754 19.8204 17.4669 20.3133 17.6947Z" fill="#FFE578"/>
<path d="M4.02893 3.06683C4.26001 3.29785 4.54165 3.47197 4.85159 3.57543C4.54153 3.67902 4.25984 3.85335 4.02879 4.0846C3.79773 4.31586 3.62366 4.59771 3.52034 4.90785C3.41695 4.59774 3.24286 4.31592 3.01181 4.08467C2.78077 3.85343 2.49911 3.67908 2.18909 3.57543C2.49914 3.47201 2.78086 3.29782 3.01193 3.06665C3.24299 2.83549 3.41706 2.55369 3.52034 2.24359C3.62378 2.55371 3.7979 2.83554 4.02893 3.06683Z" fill="#604AF3"/>
<path d="M7.47596 23.0262C6.63586 22.1871 5.92657 21.2266 5.37186 20.1768C5.06944 19.605 4.81486 19.0092 4.61073 18.3955C4.03848 16.6821 3.86482 14.8607 4.10298 13.0701C4.34114 11.2794 4.98483 9.56677 5.98502 8.06252C6.98521 6.55828 8.31552 5.30214 9.87462 4.38981C11.4337 3.47747 13.1805 2.93299 14.9818 2.79785C12.2646 2.60074 9.56217 3.34412 7.32802 4.90326C5.09387 6.4624 3.46388 8.74246 2.71151 11.3609C1.95914 13.9794 2.13016 16.7769 3.19589 19.2842C4.26161 21.7915 6.1572 23.8561 8.56464 25.1314C8.86241 24.9801 9.16682 24.8157 9.47788 24.6382C8.75435 24.1747 8.08313 23.6342 7.47596 23.0262Z" fill="#81CCCA"/>
<path d="M7.21474 21.8798C7.28427 21.8798 7.35224 21.8592 7.41006 21.8206C7.46788 21.782 7.51295 21.7271 7.53956 21.6628C7.56618 21.5986 7.57315 21.5279 7.5596 21.4597C7.54604 21.3915 7.51257 21.3289 7.46341 21.2797C6.93771 20.7541 6.47592 20.1682 6.08762 19.5342C6.03898 19.4547 5.96072 19.3977 5.87007 19.3759C5.77942 19.354 5.6838 19.3691 5.60425 19.4177C5.5247 19.4664 5.46774 19.5446 5.44589 19.6353C5.42404 19.7259 5.43909 19.8216 5.48774 19.9011C5.90497 20.5823 6.40118 21.2119 6.96606 21.7768C6.99868 21.8095 7.03744 21.8354 7.08012 21.8531C7.12279 21.8708 7.16854 21.8799 7.21474 21.8798Z" fill="#284268"/>
<path d="M4.99318 11.1539C4.94946 11.139 4.90325 11.1329 4.85718 11.1359C4.81111 11.1389 4.76608 11.151 4.72466 11.1714C4.68324 11.1918 4.64625 11.2201 4.61579 11.2548C4.58534 11.2895 4.56202 11.3299 4.54716 11.3736C3.9049 13.2593 3.83417 15.2928 4.34384 17.2186C4.36947 17.3066 4.42847 17.3811 4.50826 17.4262C4.58805 17.4714 4.68232 17.4836 4.77098 17.4602C4.85963 17.4369 4.93565 17.3798 4.98282 17.3012C5.03 17.2226 5.04461 17.1287 5.02353 17.0394C4.54917 15.2472 4.61497 13.3548 5.21267 11.5999C5.24269 11.5116 5.23643 11.4151 5.19527 11.3314C5.15411 11.2478 5.08142 11.1839 4.99318 11.1539Z" fill="#284268"/>
<path d="M2.07769 3.90904C2.33571 3.99583 2.57012 4.14122 2.76253 4.33379C2.95495 4.52636 3.10015 4.76089 3.18675 5.01898C3.21007 5.08899 3.25483 5.1499 3.3147 5.19305C3.37456 5.23621 3.44649 5.25944 3.52029 5.25944C3.59409 5.25944 3.66602 5.23621 3.72588 5.19305C3.78575 5.1499 3.83051 5.08899 3.85384 5.01898C3.94043 4.76089 4.08562 4.52636 4.27804 4.33379C4.47046 4.14121 4.70487 3.99583 4.9629 3.90904C5.03287 3.88569 5.09373 3.84092 5.13685 3.78107C5.17998 3.72122 5.20318 3.64932 5.20318 3.57555C5.20318 3.50178 5.17998 3.42988 5.13685 3.37003C5.09373 3.31018 5.03287 3.26541 4.9629 3.24206C4.70488 3.15526 4.47047 3.00988 4.27805 2.81731C4.08563 2.62474 3.94043 2.39021 3.85384 2.13212C3.83051 2.0621 3.78575 2.0012 3.72588 1.95804C3.66602 1.91489 3.59409 1.89166 3.52029 1.89166C3.44649 1.89166 3.37456 1.91489 3.3147 1.95804C3.25483 2.0012 3.21007 2.0621 3.18675 2.13212C3.10014 2.39021 2.95494 2.62472 2.76252 2.81729C2.5701 3.00986 2.3357 3.15525 2.07769 3.24206C2.00771 3.26541 1.94685 3.31018 1.90373 3.37003C1.86061 3.42988 1.8374 3.50178 1.8374 3.57555C1.8374 3.64932 1.86061 3.72122 1.90373 3.78107C1.94685 3.84092 2.00771 3.88569 2.07769 3.90904ZM3.52032 3.00669C3.6776 3.22588 3.86957 3.41795 4.08868 3.57534C3.86957 3.73276 3.6776 3.92485 3.52032 4.14406C3.36301 3.92488 3.17104 3.73279 2.95196 3.57534C3.17104 3.41799 3.36301 3.22598 3.52032 3.00687V3.00669Z" fill="#284268"/>
<path d="M25.5322 25.6912C25.2742 25.6044 25.0398 25.459 24.8474 25.2664C24.655 25.0739 24.5098 24.8394 24.4232 24.5813C24.3999 24.5113 24.3551 24.4504 24.2952 24.4072C24.2354 24.364 24.1635 24.3408 24.0897 24.3408C24.0159 24.3408 23.9439 24.364 23.8841 24.4072C23.8242 24.4504 23.7794 24.5113 23.7561 24.5813C23.6695 24.8394 23.5243 25.0739 23.3319 25.2664C23.1395 25.459 22.9051 25.6044 22.647 25.6912C22.5771 25.7145 22.5162 25.7593 22.473 25.8191C22.4299 25.879 22.4067 25.9509 22.4067 26.0247C22.4067 26.0985 22.4299 26.1704 22.473 26.2302C22.5162 26.2901 22.5771 26.3349 22.647 26.3582C22.9051 26.445 23.1395 26.5904 23.3319 26.7829C23.5243 26.9755 23.6695 27.21 23.7561 27.4681C23.7794 27.5381 23.8242 27.599 23.8841 27.6422C23.9439 27.6853 24.0159 27.7085 24.0897 27.7085C24.1635 27.7085 24.2354 27.6853 24.2952 27.6422C24.3551 27.599 24.3999 27.5381 24.4232 27.4681C24.5098 27.21 24.655 26.9755 24.8474 26.7829C25.0398 26.5903 25.2742 26.4449 25.5322 26.3581C25.6022 26.3348 25.6631 26.29 25.7062 26.2302C25.7494 26.1703 25.7726 26.0984 25.7726 26.0246C25.7726 25.9508 25.7494 25.8789 25.7062 25.8191C25.6631 25.7592 25.6022 25.7144 25.5322 25.6911V25.6912ZM24.0896 26.5935C23.9323 26.3743 23.7404 26.1823 23.5213 26.0249C23.7404 25.8676 23.9323 25.6756 24.0896 25.4565C24.2469 25.6756 24.4389 25.8675 24.658 26.0249C24.4389 26.1822 24.247 26.3742 24.0896 26.5933V26.5935Z" fill="#284268"/>
<path d="M21.0276 28.3377C20.8922 28.3376 20.7597 28.3778 20.6471 28.453C20.5345 28.5282 20.4467 28.6351 20.3948 28.7602C20.343 28.8853 20.3294 29.023 20.3557 29.1558C20.3821 29.2886 20.4473 29.4107 20.5431 29.5064C20.6388 29.6022 20.7608 29.6674 20.8936 29.6939C21.0265 29.7203 21.1641 29.7068 21.2893 29.6549C21.4144 29.6031 21.5213 29.5154 21.5966 29.4027C21.6718 29.2901 21.712 29.1577 21.712 29.0223C21.7117 28.8409 21.6395 28.6669 21.5112 28.5386C21.383 28.4103 21.209 28.338 21.0276 28.3377Z" fill="#284268"/>
<path d="M7.04833 1.66221C7.18376 1.66227 7.31617 1.62216 7.4288 1.54696C7.54143 1.47176 7.62924 1.36485 7.6811 1.23975C7.73296 1.11464 7.74656 0.976965 7.72017 0.844131C7.69378 0.711298 7.62859 0.589275 7.53284 0.493495C7.4371 0.397716 7.31509 0.332483 7.18227 0.306048C7.04944 0.279612 6.91176 0.293162 6.78664 0.344984C6.66152 0.396805 6.55457 0.484569 6.47933 0.597176C6.40409 0.709784 6.36394 0.842174 6.36395 0.977604C6.3642 1.15906 6.43638 1.33301 6.56466 1.46134C6.69295 1.58967 6.86688 1.6619 7.04833 1.66221Z" fill="#284268"/>
<path d="M27.5732 0.420781C27.5073 0.486711 27.4702 0.576129 27.4702 0.669365C27.4702 0.762601 27.5073 0.852019 27.5732 0.917949C28.4074 1.75279 28.8395 2.8867 28.8575 4.2759C28.8585 4.36896 28.8958 4.45796 28.9615 4.5239C29.0272 4.58985 29.116 4.62751 29.2091 4.62887H29.2137C29.3077 4.62671 29.397 4.5874 29.462 4.51954C29.5271 4.45167 29.5625 4.3608 29.5607 4.26682C29.5402 2.68777 29.0389 1.39285 28.0706 0.423886C28.0382 0.391003 27.9996 0.364837 27.957 0.346883C27.9144 0.328929 27.8687 0.31954 27.8226 0.319251C27.7764 0.318963 27.7306 0.327781 27.6878 0.345202C27.645 0.362623 27.6061 0.388305 27.5732 0.420781Z" fill="#284268"/>
<path d="M28.9717 6.42851C28.9269 6.41738 28.8804 6.4152 28.8347 6.42207C28.7891 6.42894 28.7452 6.44474 28.7056 6.46856C28.6661 6.49238 28.6316 6.52375 28.6042 6.5609C28.5768 6.59804 28.5569 6.64022 28.5458 6.68503C28.4633 7.01761 28.3633 7.36408 28.2484 7.71482C28.2327 7.75903 28.2259 7.80595 28.2286 7.85282C28.2313 7.89968 28.2433 7.94553 28.2639 7.98768C28.2846 8.02982 28.3135 8.0674 28.3489 8.0982C28.3843 8.12899 28.4256 8.15239 28.4702 8.167C28.5148 8.18161 28.5618 8.18714 28.6086 8.18326C28.6554 8.17939 28.7009 8.16619 28.7425 8.14443C28.7841 8.12268 28.8209 8.09282 28.8508 8.05661C28.8807 8.02041 28.903 7.97858 28.9164 7.93361C29.0365 7.56658 29.1414 7.20347 29.228 6.85437C29.2505 6.76391 29.2361 6.66824 29.188 6.58838C29.14 6.50853 29.0622 6.45102 28.9717 6.42851Z" fill="#284268"/>
<path d="M17.7432 2.96303C15.6153 2.30283 13.3477 2.23608 11.1847 2.76998C9.02173 3.30389 7.04557 4.41818 5.46936 5.99268C2.15137 9.31313 1.14643 14.0845 2.45295 18.2845C2.42775 18.3085 2.40625 18.3362 2.38914 18.3665C0.109085 22.4034 -0.179138 25.4549 1.55571 27.191C2.2985 27.9343 3.28897 28.3053 4.49776 28.3052C5.87371 28.3052 7.53239 27.8243 9.42871 26.8644C9.77078 26.6913 10.1181 26.5039 10.4708 26.3023C12.5985 26.9636 14.8664 27.0306 17.0294 26.4961C19.1924 25.9617 21.1681 24.846 22.7429 23.2698C24.3177 21.6937 25.4316 19.717 25.9642 17.5535C26.4968 15.39 26.4278 13.1221 25.7646 10.9951C26.4822 9.73624 27.019 8.55065 27.3518 7.47815C28.0908 5.09702 27.8557 3.27956 26.6533 2.07628C24.9029 0.324557 21.8234 0.632819 17.7432 2.96303ZM5.96676 6.48973C7.46469 4.99329 9.34574 3.93818 11.4037 3.44011C13.4616 2.94203 15.6169 3.02022 17.6334 3.6661C17.6595 3.67806 17.6871 3.68677 17.7154 3.69206C18.3137 3.88932 18.8946 4.13605 19.452 4.42969C19.4712 4.44221 19.4916 4.45283 19.5129 4.46139C21.4892 5.52093 23.1164 7.13004 24.1979 9.09434C23.587 10.269 22.7701 11.5611 21.7677 12.914C21.6113 12.8855 21.4528 12.871 21.2938 12.8709C20.8583 12.871 20.4293 12.9768 20.0435 13.179C19.6578 13.3813 19.3268 13.674 19.079 14.0322C18.8311 14.3903 18.6738 14.8032 18.6204 15.2355C18.5671 15.6678 18.6193 16.1065 18.7727 16.5142C18.3305 16.9932 17.8722 17.4714 17.4061 17.938C14.4522 20.894 11.315 23.3065 8.56897 24.7343C7.6133 24.2086 6.73715 23.5498 5.96676 22.7776C1.47936 18.2871 1.47936 10.9805 5.96676 6.48973ZM20.4023 4.15852C22.6289 3.12891 24.3008 2.95471 25.0379 3.69229C25.7954 4.45026 25.5875 6.14216 24.572 8.33421C23.5403 6.62554 22.1095 5.19267 20.4023 4.15852ZM23.1527 14.8519C23.3049 15.2485 23.3262 15.6834 23.2136 16.093C23.101 16.5027 22.8602 16.8655 22.5266 17.1285C22.193 17.3915 21.784 17.5409 21.3594 17.5548C20.9348 17.5687 20.5168 17.4464 20.1667 17.2058C19.8166 16.9652 19.5526 16.6189 19.4134 16.2175C19.2742 15.8161 19.2671 15.3808 19.393 14.975C19.519 14.5693 19.7714 14.2145 20.1134 13.9625C20.4555 13.7105 20.8691 13.5746 21.2939 13.5745C21.6967 13.5737 22.0903 13.6954 22.4222 13.9235C22.7542 14.1516 23.0089 14.4753 23.1525 14.8516L23.1527 14.8519ZM7.80918 25.1081C5.5801 26.1402 3.91071 26.3151 3.17125 25.5749C2.43362 24.8367 2.60828 23.1618 3.63883 20.9317C4.66847 22.6424 6.09999 24.076 7.80918 25.1081ZM9.11131 26.2371C7.70817 26.9473 6.00285 27.6052 4.50063 27.6052C3.56547 27.6052 2.70883 27.3501 2.05317 26.694C1.2952 25.9356 1.0085 24.8379 1.20116 23.4304C1.3692 22.2015 1.89367 20.7639 2.75975 19.1526C2.89713 19.4995 3.05108 19.8409 3.22159 20.1768C2.58121 21.4667 2.19145 22.6073 2.06395 23.5682C1.91688 24.6771 2.12219 25.5193 2.67432 26.072C3.10938 26.5074 3.73323 26.7234 4.51903 26.7234C5.65791 26.7234 7.13658 26.2691 8.87031 25.3703C11.684 23.9118 14.8922 21.4487 17.9039 18.4349C18.3199 18.0189 18.7301 17.5932 19.128 17.166C19.3033 17.4029 19.516 17.6097 19.7578 17.7782C19.3551 18.2104 18.9421 18.6393 18.5247 19.0569C15.4201 22.1632 11.9892 24.7803 9.11131 26.2371ZM25.3189 17.2289C24.9753 18.7196 24.3378 20.1269 23.4439 21.3684C22.5499 22.61 21.4174 23.6608 20.1125 24.4594C18.8077 25.2581 17.3567 25.7886 15.8444 26.0199C14.3321 26.2512 12.7889 26.1786 11.3049 25.8065C13.7966 24.2672 16.4742 22.1033 19.0217 19.5539C19.4919 19.0833 19.9567 18.5988 20.4076 18.1109C20.8928 18.2794 21.416 18.3057 21.9157 18.1869C22.4154 18.068 22.8707 17.8088 23.2281 17.4399C23.5854 17.071 23.83 16.6077 23.9329 16.1045C24.0358 15.6013 23.9928 15.0791 23.809 14.5995C23.7604 14.473 23.7021 14.3505 23.6348 14.2329C24.241 13.414 24.787 12.6102 25.2688 11.8299C25.711 13.6004 25.7281 15.4504 25.3188 17.2289H25.3189ZM26.6804 7.26979C26.1095 9.10917 24.905 11.3097 23.1882 13.6536C22.9781 13.4464 22.7357 13.2746 22.4707 13.1449C23.4682 11.7819 24.2884 10.4691 24.9037 9.25764C24.9051 9.25524 24.9062 9.25272 24.9075 9.25026C25.2218 8.63947 25.4957 8.00867 25.7273 7.36196C26.4023 5.4371 26.3356 3.9961 25.5351 3.19524C24.983 2.64258 24.1411 2.43751 23.0327 2.5844C22.0739 2.71173 20.9362 3.10073 19.6496 3.73975C19.3159 3.56917 18.9749 3.4146 18.6267 3.27604C20.1938 2.43305 21.5967 1.91479 22.8047 1.73356C24.2546 1.51618 25.382 1.79866 26.156 2.57327C27.1594 3.57739 27.3358 5.15749 26.6803 7.26979H26.6804Z" fill="#284268"/>
</svg>
