<svg width="114" height="114" viewBox="0 0 114 114" fill="none" xmlns="http://www.w3.org/2000/svg">
<g clip-path="url(#clip0)">
<path d="M96.2909 46.895C87.8209 42.3438 78.6286 39.2897 69.1192 37.8672L47.4011 34.62L47.4 79.3147L69.1192 76.0664C78.6289 74.6443 87.8216 71.5906 96.292 67.0398C91.3798 61.3454 91.3798 52.5883 96.2909 46.895Z" fill="#E5F5FD"/>
<path d="M96.2909 46.895C87.8209 42.3438 78.6286 39.2897 69.1192 37.8672L47.4011 34.62L47.5115 40.0338L69.2297 43.281C77.7645 44.5583 86.0498 47.1508 93.7905 50.9662C94.4007 49.4841 95.2449 48.1095 96.2909 46.895Z" fill="#A6B7D0"/>
<path d="M108.289 54.346C108.726 54.6297 109.085 55.0181 109.334 55.4757C109.582 55.9334 109.712 56.446 109.712 56.9668C109.712 57.4876 109.582 58.0001 109.334 58.4578C109.085 58.9155 108.726 59.3038 108.289 59.5875L102.275 63.4964C102.071 63.629 101.866 63.7616 101.659 63.8909L101.647 63.8721C98.054 60.0581 98.054 53.8754 101.646 50.0625L101.659 50.0426C101.866 50.1719 102.071 50.3045 102.275 50.4371L108.289 54.346Z" fill="#E5F5FD"/>
<path d="M101.647 63.8721L101.659 63.8909C99.908 65.0101 98.1189 66.0597 96.2918 67.0397C91.3797 61.3453 91.3797 52.5882 96.2907 46.8949C98.1171 47.8749 99.9066 48.9242 101.659 50.0427L101.646 50.0625C98.0541 53.8754 98.0541 60.0582 101.647 63.8721Z" fill="#ED6337"/>
<path d="M47.4 79.3148C48.3827 77.8317 48.9047 76.0911 48.9004 74.312C48.8998 72.02 49.7651 69.8124 51.323 68.1312C52.8808 66.45 55.0163 65.4193 57.3017 65.2455H57.2354L38.1225 65.2467L38.1225 83.406L39.8063 83.406C41.312 83.407 42.7943 83.0336 44.1198 82.3194C45.4454 81.6053 46.5726 80.5727 47.4 79.3148Z" fill="#ED6337"/>
<path d="M33.0642 79.8293L38.1148 79.8293L38.1148 83.3953L33.0642 83.3953L33.0642 79.8293Z" fill="#A6B7D0"/>
<path d="M33.0798 65.2297H38.1309V70.8354H33.0798V65.2297Z" fill="#A6B7D0"/>
<path d="M28.8406 77.8365C28.3054 78.3719 27.593 78.6931 26.8374 78.7397C26.0818 78.7863 25.3352 78.5551 24.7383 78.0895L21.5983 75.6411L24.7383 73.1928C25.3616 72.7074 26.1465 72.478 26.9331 72.5512C27.7197 72.6244 28.4487 72.9947 28.9717 73.5868C29.4948 74.1788 29.7724 74.948 29.748 75.7376C29.7237 76.5272 29.3992 77.2778 28.8406 77.8365Z" fill="#FADF4A"/>
<path d="M51.5642 46.0531C50.7182 45.2095 50.0474 44.207 49.5903 43.1033C49.1331 41.9996 48.8987 40.8164 48.9004 39.6217C48.9002 37.2099 47.942 34.8968 46.2366 33.1914C44.5312 31.486 42.2181 30.5278 39.8063 30.5276L38.1225 30.5276L38.1225 48.6892L57.2365 48.6892C57.2586 48.6892 57.2785 48.6892 57.2995 48.6903C55.1335 48.5267 53.0982 47.5909 51.5642 46.0531Z" fill="#ED6337"/>
<path d="M33.0691 42.9062L38.1197 42.9062L38.1197 48.6815L33.0691 48.6815L33.0691 42.9062Z" fill="#A6B7D0"/>
<path d="M25.3038 59.4792C24.7689 60.015 24.0563 60.3366 23.3006 60.3832C22.5449 60.4298 21.7982 60.1982 21.2015 59.7322L18.0626 57.285L21.2015 54.8377C21.6934 54.4549 22.289 54.2288 22.911 54.1888C23.533 54.1488 24.1527 54.2967 24.6895 54.6134C25.0969 54.8544 25.4438 55.1853 25.7036 55.5809C25.9634 55.9765 26.1293 56.4263 26.1886 56.8958C26.2479 57.3654 26.199 57.8423 26.0456 58.2901C25.8923 58.7378 25.6385 59.1446 25.3038 59.4792Z" fill="#FADF4A"/>
<path d="M38.1226 34.0942L38.1226 30.5277L33.0712 30.5277L33.0701 34.0953L38.1226 34.0964V34.0942Z" fill="#A6B7D0"/>
<path d="M28.8407 40.6183C28.3057 41.1541 27.5932 41.4757 26.8375 41.5223C26.0817 41.5689 25.3351 41.3374 24.7383 40.8713L21.5984 38.4252L24.7383 35.9768C25.3614 35.4917 26.1459 35.2623 26.9322 35.3354C27.7184 35.4085 28.4472 35.7785 28.9702 36.3702C29.4931 36.9619 29.7708 37.7306 29.7468 38.5199C29.7227 39.3092 29.3987 40.0596 28.8407 40.6183Z" fill="#FADF4A"/>
<path d="M83.2105 55.7791C83.103 55.6724 82.9819 55.5803 82.8503 55.5051C75.0715 51.0488 66.2643 48.6998 57.2995 48.6904C57.2785 48.6893 57.2586 48.6893 57.2365 48.6893L28.0186 48.6882L28.0186 65.2455L57.2354 65.2455L57.3017 65.2455C66.266 65.2354 75.0725 62.8856 82.8503 58.4286C83.0744 58.2999 83.2659 58.1216 83.4101 57.9073C83.5543 57.693 83.6474 57.4484 83.6822 57.1924C83.717 56.9365 83.6926 56.6759 83.6108 56.4309C83.529 56.1859 83.3921 55.9629 83.2105 55.7791Z" fill="#5F6A78"/>
<path d="M65.9494 56.9669C65.9489 57.8022 65.6169 58.6031 65.0263 59.1937C64.4357 59.7843 63.6347 60.1164 62.7995 60.1168L59.6584 60.1157L59.6584 53.8181L62.7995 53.8169C63.6348 53.8172 64.4359 54.1491 65.0266 54.7398C65.6172 55.3305 65.9492 56.1315 65.9494 56.9669Z" fill="#A6B7D0"/>
<path d="M54.6013 53.8124L59.652 53.8124L59.652 60.1091L54.6013 60.1091L54.6013 53.8124Z" fill="#50A6EA"/>
<path d="M54.6069 60.1157L49.5544 60.1168L49.5544 53.8169L54.6069 53.818L54.6069 60.1157Z" fill="#A6B7D0"/>
<path d="M44.498 53.8109L49.5492 53.8109L49.5492 60.1093L44.498 60.1093L44.498 53.8109Z" fill="#50A6EA"/>
<path d="M39.4575 53.8044H44.5086V60.1017H39.4575V53.8044Z" fill="#A6B7D0"/>
<path d="M38.9863 71.0492L38.7896 70.8526L34.1669 70.8526L34.1669 79.8394L38.7896 79.8394L38.9056 79.7278C39.485 79.1657 39.9471 78.4942 40.2651 77.7523C40.5831 77.0103 40.7507 76.2126 40.7582 75.4054C40.7657 74.5982 40.6129 73.7975 40.3088 73.0497C40.0046 72.302 39.5551 71.622 38.9863 71.0492Z" fill="#50A6EA"/>
<path d="M29.7534 70.8426L34.1617 70.8426L34.1617 79.8276L29.7534 79.8276L29.7534 70.8426Z" fill="#ED6337"/>
<path d="M38.8903 34.1925C38.8571 34.1593 38.8251 34.1273 38.7908 34.0952L34.1659 34.0952L34.167 42.9131L38.7897 42.9131L38.8505 42.8545C39.4246 42.2899 39.8813 41.6173 40.1942 40.8754C40.5072 40.1335 40.6702 39.337 40.6739 38.5318C40.6776 37.7266 40.5219 36.9286 40.2158 36.1839C39.9097 35.4391 39.4592 34.7623 38.8903 34.1925Z" fill="#50A6EA"/>
<path d="M29.7573 34.0892H34.1651V42.9056H29.7573V34.0892Z" fill="#ED6337"/>
<path d="M83.2105 55.7791C83.103 55.6724 82.9819 55.5803 82.8503 55.5051C75.0715 51.0488 66.2643 48.6998 57.2995 48.6904C57.2785 48.6893 57.2586 48.6893 57.2365 48.6893L28.0186 48.6882L28.1291 54.1019L57.347 54.1031C57.3691 54.1031 57.389 54.103 57.41 54.1042C65.4659 54.1129 73.4075 56.0112 80.5965 59.6464C81.3567 59.2597 82.1079 58.8538 82.8503 58.4286C83.0744 58.2999 83.2659 58.1216 83.4101 57.9073C83.5543 57.693 83.6474 57.4484 83.6822 57.1924C83.717 56.9365 83.6926 56.6759 83.6108 56.4309C83.529 56.1859 83.3921 55.9629 83.2105 55.7791Z" fill="#475673"/>
<path d="M99.8782 52.7142L99.8914 52.6943C100.098 52.8235 100.304 52.9561 100.507 53.0887L106.522 56.9977C106.988 57.2984 107.365 57.7183 107.614 58.2139C107.863 58.7096 107.975 59.2628 107.938 59.8162L108.289 59.5875C108.726 59.3038 109.085 58.9155 109.334 58.4578C109.582 58.0001 109.712 57.4876 109.712 56.9668C109.712 56.446 109.582 55.9334 109.334 55.4757C109.085 55.0181 108.726 54.6297 108.289 54.346L102.275 50.4371C102.071 50.3045 101.866 50.1719 101.659 50.0426L101.646 50.0625C100.908 50.8479 100.305 51.7503 99.8615 52.7328C99.8671 52.7268 99.8723 52.7202 99.8782 52.7142Z" fill="#A6B7D0"/>
<path d="M12.4127 67.1666C12.6689 67.1669 12.9172 67.0783 13.1154 66.9159C13.3136 66.7535 13.4493 66.5274 13.4994 66.2762C13.5496 66.0249 13.511 65.7641 13.3903 65.5381C13.2697 65.3121 13.0743 65.135 12.8376 65.0369C12.601 64.9388 12.3376 64.9258 12.0924 65.0002C11.8473 65.0746 11.6355 65.2317 11.4932 65.4448C11.3509 65.6578 11.2869 65.9136 11.3122 66.1686C11.3374 66.4235 11.4503 66.6618 11.6316 66.8429C11.8388 67.0499 12.1197 67.1663 12.4127 67.1666Z" fill="#284268"/>
<path d="M66.8863 56.9672C66.885 55.8837 66.454 54.8449 65.6879 54.0788C64.9218 53.3127 63.883 52.8817 62.7995 52.8804L54.6074 52.8803L49.5569 52.8803L49.5562 52.881L39.4534 52.881C39.2048 52.881 38.9663 52.9797 38.7905 53.1556C38.6147 53.3314 38.5159 53.5698 38.5159 53.8184L38.5159 60.1161C38.5159 60.3647 38.6147 60.6032 38.7905 60.779C38.9663 60.9548 39.2048 61.0536 39.4534 61.0536L62.7996 61.0538C63.8831 61.0525 64.9218 60.6215 65.6879 59.8554C66.454 59.0893 66.885 58.0506 66.8863 56.9672ZM40.3883 59.1791L40.3882 54.7554L43.5652 54.7552L43.5652 59.1791L40.3883 59.1791ZM45.4404 59.1791L45.4404 54.7552L48.6168 54.7548L48.617 59.1785L45.4404 59.1791ZM50.4923 59.179L50.4923 54.7553L53.6693 54.7552L53.6692 59.179L50.4923 59.179ZM55.5442 59.179L55.5443 54.7552L58.7212 54.7552L58.7211 59.179L55.5442 59.179ZM62.7995 59.179L60.5963 59.1791L60.5963 54.7552L62.7994 54.7552C63.3848 54.7571 63.9455 54.991 64.3588 55.4056C64.772 55.8202 65.0041 56.3817 65.0041 56.967C65.0041 57.5524 64.7721 58.1139 64.3589 58.5285C63.9456 58.9431 63.3849 59.177 62.7995 59.179Z" fill="#284268"/>
<path d="M16.558 62.2637C16.1632 62.0292 15.7972 61.7493 15.4677 61.4295L14.4633 60.4251L14.4783 60.4101C14.2978 60.247 14.0614 60.1597 13.8183 60.1662C13.5751 60.1726 13.3437 60.2724 13.1721 60.4448C12.9987 60.63 12.9038 60.8752 12.9074 61.1289C12.9111 61.3827 13.013 61.6251 13.1917 61.8052L14.1419 62.7554C14.5753 63.179 15.057 63.5502 15.5771 63.8613C15.7935 63.9889 16.0514 64.0265 16.2953 63.9659C16.5392 63.9054 16.7495 63.7516 16.8812 63.5376C16.9443 63.4329 16.986 63.3168 17.0039 63.1958C17.0218 63.0749 17.0156 62.9517 16.9855 62.8332C16.9554 62.7147 16.9022 62.6034 16.8288 62.5056C16.7554 62.4079 16.6633 62.3256 16.558 62.2637Z" fill="#284268"/>
<path d="M25.9821 64.555C25.7964 64.3897 25.5526 64.305 25.3044 64.3194C25.0562 64.3339 24.8239 64.4463 24.6586 64.632C24.5353 64.7708 24.405 64.9032 24.2684 65.0289C24.0913 65.1934 23.9043 65.347 23.7084 65.4886C23.0896 65.9367 22.3882 66.2577 21.6447 66.4329C20.9011 66.6082 20.1302 66.6342 19.3765 66.5096C19.255 66.4899 19.1308 66.4942 19.011 66.5225C18.8911 66.5507 18.7781 66.6023 18.6782 66.6743C18.5783 66.7463 18.4935 66.8372 18.4288 66.9419C18.364 67.0466 18.3205 67.163 18.3008 67.2846C18.281 67.4061 18.2854 67.5303 18.3136 67.6501C18.3419 67.77 18.3935 67.8831 18.4654 67.983C18.5374 68.0829 18.6283 68.1676 18.733 68.2324C18.8377 68.2971 18.9542 68.3406 19.0757 68.3604C20.0727 68.5251 21.0925 68.4905 22.076 68.2585C23.0596 68.0265 23.9874 67.6018 24.8057 67.0089C25.0635 66.8228 25.3096 66.621 25.5425 66.4047C25.7213 66.2403 25.8952 66.0633 26.0594 65.8787C26.1412 65.7868 26.2042 65.6796 26.2446 65.5632C26.285 65.4469 26.3021 65.3238 26.295 65.2009C26.2878 65.078 26.2565 64.9577 26.2028 64.8468C26.1491 64.736 26.0741 64.6369 25.9821 64.555Z" fill="#284268"/>
<path d="M18.0766 48.4861C20.4002 47.4413 23.1828 48.0084 24.8459 49.8746C25.0115 50.0601 25.244 50.1723 25.4922 50.1864C25.7404 50.2006 25.9841 50.1155 26.1697 49.95C26.3552 49.7844 26.4674 49.5519 26.4815 49.3037C26.4956 49.0555 26.4106 48.8118 26.245 48.6262C24.0426 46.1586 20.3694 45.3994 17.3077 46.7759C17.1954 46.8264 17.0942 46.8985 17.0098 46.9881C16.9253 47.0778 16.8594 47.1831 16.8157 47.2982C16.772 47.4133 16.7514 47.5359 16.755 47.659C16.7587 47.782 16.7866 47.9032 16.8371 48.0155C16.8876 48.1278 16.9597 48.229 17.0493 48.3134C17.1389 48.3979 17.2443 48.4638 17.3594 48.5075C17.4745 48.5512 17.597 48.5718 17.7201 48.5682C17.8432 48.5645 17.9643 48.5366 18.0766 48.4861Z" fill="#284268"/>
<path d="M12.9179 47.778C12.6659 47.778 12.4195 47.8527 12.2099 47.9927C12.0003 48.1328 11.837 48.3318 11.7405 48.5646C11.6441 48.7975 11.6188 49.0537 11.668 49.301C11.7172 49.5482 11.8385 49.7752 12.0168 49.9535C12.195 50.1317 12.4221 50.2531 12.6693 50.3022C12.9165 50.3514 13.1727 50.3262 13.4056 50.2297C13.6385 50.1332 13.8375 49.9699 13.9775 49.7603C14.1175 49.5508 14.1923 49.3044 14.1923 49.0523C14.1919 48.7145 14.0575 48.3905 13.8186 48.1516C13.5797 47.9127 13.2558 47.7784 12.9179 47.778Z" fill="#284268"/>
<path d="M8.95999 50.3034C8.689 50.3034 8.42911 50.4111 8.2375 50.6027C8.04588 50.7943 7.93823 51.0542 7.93823 51.3252C7.93823 51.5962 8.04588 51.8561 8.2375 52.0477C8.42912 52.2393 8.68901 52.3469 8.96 52.3469L8.96232 52.3471C9.23157 52.3441 9.48877 52.235 9.67801 52.0434C9.86726 51.8519 9.97324 51.5934 9.97294 51.3241C9.97263 51.0548 9.86605 50.7966 9.67638 50.6054C9.4867 50.4143 9.22925 50.3058 8.95999 50.3034Z" fill="#284268"/>
<path d="M27.8701 68.7198C28.0131 68.5769 28.1104 68.3947 28.1498 68.1964C28.1892 67.9981 28.1689 67.7926 28.0914 67.6058C28.014 67.4191 27.8828 67.2595 27.7146 67.1473C27.5464 67.0351 27.3487 66.9754 27.1465 66.9756C26.9786 66.9758 26.8132 67.0174 26.6652 67.0967C26.5171 67.176 26.3909 67.2906 26.2977 67.4304C26.2045 67.5701 26.1472 67.7307 26.1308 67.8978C26.1145 68.065 26.1396 68.2336 26.204 68.3888C26.2683 68.5439 26.37 68.6808 26.4998 68.7873C26.6297 68.8938 26.7839 68.9667 26.9486 68.9994C27.1134 69.0322 27.2836 69.0238 27.4444 68.975C27.6051 68.9262 27.7513 68.8386 27.8701 68.7198Z" fill="#284268"/>
<path d="M108.801 53.5607L102.786 49.6516C92.6563 43.0476 81.219 38.7114 69.2574 36.9403L47.9418 33.7525C47.6275 33.3179 47.2792 32.9089 46.9003 32.5293C45.971 31.5949 44.8657 30.8541 43.6483 30.3497C42.4308 29.8453 41.1254 29.5874 39.8076 29.5909L33.0708 29.5908C32.8222 29.5908 32.5837 29.6896 32.4079 29.8654C32.2321 30.0412 32.1333 30.2797 32.1333 30.5283L32.1333 33.1578L29.758 33.158C29.5094 33.158 29.2709 33.2567 29.0951 33.4325C28.9193 33.6083 28.8205 33.8468 28.8205 34.0954L28.8206 35.021C28.7815 34.996 28.743 34.97 28.7032 34.9466C28.0055 34.5304 27.1981 34.3354 26.3873 34.3874C25.5766 34.4394 24.8007 34.736 24.1619 35.238L21.0227 37.6855C20.9179 37.7672 20.8317 37.8702 20.7698 37.9877C20.7079 38.1052 20.6716 38.2345 20.6634 38.3671C20.6553 38.4997 20.6753 38.6325 20.7224 38.7567C20.7694 38.881 20.8423 38.9938 20.9362 39.0877C20.9634 39.115 20.9923 39.1405 21.0227 39.1643L24.1621 41.6119C24.7883 42.1012 25.545 42.3946 26.3373 42.4554C27.1296 42.5162 27.9223 42.3415 28.6157 41.9534C28.6853 41.9147 28.753 41.8728 28.8201 41.8298V42.9126C28.8201 43.1612 28.9189 43.3996 29.0947 43.5754C29.2705 43.7512 29.5088 43.8499 29.7574 43.85H32.1329L32.1329 47.7508L28.0188 47.7514C27.7702 47.7514 27.5318 47.8502 27.356 48.026C27.1802 48.2018 27.0814 48.4403 27.0814 48.6889L27.0814 55.4698C26.8867 54.6659 26.563 53.8989 26.1229 53.1986C25.9861 52.9818 25.8405 52.7739 25.691 52.5817C24.9793 51.6616 24.066 50.9171 23.0214 50.4054C21.9768 49.8938 20.8287 49.6286 19.6655 49.6303C18.6355 49.6219 17.6142 49.8188 16.6612 50.2097C15.7082 50.6006 14.8427 51.1775 14.1154 51.9068C13.9424 52.0797 13.8438 52.3133 13.8406 52.5579C13.8375 52.8024 13.9301 53.0385 14.0986 53.2158L14.4323 53.567C12.3653 53.9461 10.5191 55.0952 9.26615 56.7823C9.14336 56.9635 9.08645 57.1814 9.10491 57.3996C9.12337 57.6178 9.21608 57.823 9.36758 57.981L11.0149 59.6284C11.1907 59.8042 11.4292 59.903 11.6778 59.903C11.9265 59.903 12.1649 59.8042 12.3407 59.6284C12.5166 59.4526 12.6153 59.2141 12.6153 58.9655C12.6153 58.7168 12.5166 58.4784 12.3407 58.3026L11.3014 57.2632C11.9657 56.5899 12.7683 56.0687 13.6537 55.7358C14.5391 55.4029 15.4862 55.2662 16.4296 55.3351C16.6193 55.3457 16.8079 55.2992 16.971 55.2018C17.1342 55.1044 17.2645 54.9604 17.3452 54.7884C17.4255 54.6174 17.4525 54.4263 17.4229 54.2398C17.3932 54.0533 17.3082 53.88 17.1789 53.7424L16.1339 52.6391C17.1566 51.8935 18.3919 51.4965 19.6574 51.5065C20.4191 51.5038 21.1737 51.653 21.877 51.9455C22.5803 52.2381 23.2181 52.668 23.7532 53.2101C23.7864 53.2432 23.8162 53.2779 23.848 53.3117C23.2858 53.206 22.7074 53.2215 22.1517 53.3572C21.5959 53.493 21.0756 53.7458 20.6254 54.0988L17.4863 56.5463C17.3815 56.628 17.2953 56.731 17.2334 56.8485C17.1714 56.966 17.1352 57.0953 17.127 57.2279C17.1188 57.3605 17.1389 57.4933 17.1859 57.6175C17.233 57.7417 17.3058 57.8545 17.3998 57.9485C17.427 57.9757 17.4558 58.0012 17.4862 58.0249L20.6258 60.4727C21.0775 60.8252 21.5992 61.0774 22.156 61.2125C22.7128 61.3476 23.292 61.3626 23.8551 61.2563C23.8105 61.304 23.7673 61.353 23.7211 61.3994C23.1823 61.9409 22.5415 62.3703 21.8358 62.6627C21.13 62.955 20.3733 63.1045 19.6094 63.1025C19.362 63.1045 19.1255 63.2042 18.9514 63.3798C18.7772 63.5553 18.6795 63.7926 18.6795 64.04C18.6795 64.2873 18.7772 64.5246 18.9514 64.7002C19.1255 64.8758 19.362 64.9754 19.6094 64.9774C20.7802 64.9782 21.9358 64.7112 22.9877 64.1968C24.0395 63.6824 24.9598 62.9342 25.6781 62.0096C25.8279 61.8191 25.9713 61.6165 26.104 61.4069C26.5537 60.6984 26.8838 59.9208 27.0812 59.1052V65.2451C27.0812 65.4937 27.18 65.7321 27.3557 65.9079C27.5315 66.0837 27.7699 66.1825 28.0185 66.1825L32.133 66.1825L32.1331 69.9148L29.7578 69.9149C29.5091 69.9149 29.2707 70.0137 29.0949 70.1895C28.9191 70.3653 28.8203 70.6038 28.8203 70.8524L28.8202 72.2369C28.7813 72.2119 28.7427 72.1859 28.703 72.1625C28.0053 71.7463 27.1978 71.5513 26.3871 71.6034C25.5763 71.6555 24.8004 71.9521 24.1617 72.4541L21.0228 74.902C20.918 74.9837 20.8318 75.0867 20.7699 75.2042C20.708 75.3217 20.6717 75.451 20.6635 75.5836C20.6554 75.7162 20.6754 75.849 20.7225 75.9732C20.7695 76.0974 20.8424 76.2102 20.9363 76.3042C20.9636 76.3314 20.9924 76.357 21.0228 76.3807L24.1622 78.8283C24.7884 79.3176 25.5451 79.6111 26.3374 79.6718C27.1298 79.7326 27.9224 79.558 28.6158 79.1698C28.6854 79.1312 28.7531 79.0893 28.8201 79.0464V79.8388C28.8201 80.0875 28.9189 80.3259 29.0947 80.5017C29.2705 80.6775 29.5089 80.7763 29.7576 80.7763H32.133V83.4058C32.133 83.6544 32.2318 83.8928 32.4076 84.0686C32.5834 84.2444 32.8218 84.3432 33.0703 84.3432L39.8064 84.3432C41.1243 84.3467 42.4299 84.0888 43.6474 83.5843C44.865 83.0799 45.9704 82.3389 46.8996 81.4043C47.2785 81.0246 47.6268 80.6156 47.9412 80.181L69.2573 76.9927C81.2188 75.222 92.6562 70.8863 102.786 64.2826L108.801 60.3734C109.368 60.0046 109.835 59.4998 110.158 58.9049C110.48 58.31 110.65 57.6439 110.65 56.9671C110.65 56.2903 110.48 55.6241 110.158 55.0293C109.835 54.4344 109.368 53.9296 108.801 53.5607ZM39.807 31.4659C41.9701 31.4659 44.0446 32.3252 45.5741 33.8548C47.1036 35.3843 47.963 37.4588 47.963 39.6219C47.9662 41.2101 48.3457 42.7748 49.0706 44.1879C49.7954 45.601 50.8448 46.8222 52.1328 47.7513H39.0604L39.0602 43.811C39.2059 43.7672 39.3388 43.6886 39.4473 43.582L39.5076 43.5218C40.1796 42.8611 40.7121 42.0722 41.0735 41.2018C41.4349 40.3314 41.6178 39.3973 41.6113 38.4549C41.6048 37.5124 41.4091 36.5809 41.0358 35.7156C40.6625 34.8502 40.1192 34.0687 39.4382 33.4173C39.3309 33.3166 39.2013 33.2426 39.0601 33.2014L39.0601 31.4657L39.807 31.4659ZM37.1853 31.4658L37.1854 33.1576L34.0084 33.1577L34.0081 31.4669L37.1853 31.4658ZM27.7022 40.3164C27.3304 40.5245 26.9055 40.6181 26.4807 40.5854C26.0559 40.5528 25.6502 40.3954 25.3146 40.133L23.1239 38.4249L25.3146 36.7166C25.6588 36.4509 26.0744 36.2941 26.5083 36.2662C26.9422 36.2384 27.3745 36.3408 27.7498 36.5602C28.0773 36.7545 28.3478 37.0316 28.5342 37.3637C28.7205 37.6958 28.8161 38.0711 28.8113 38.4518C28.8065 38.8326 28.7015 39.2054 28.5069 39.5326C28.3122 39.8599 28.0348 40.1301 27.7025 40.3161L27.7022 40.3164ZM30.6955 41.9757L30.6955 35.0326L33.2296 35.0326L33.2296 41.9757L30.6955 41.9757ZM35.1047 35.0328L38.3972 35.0328C39.2598 35.9832 39.7375 37.2208 39.7373 38.5043C39.737 39.7879 39.2587 41.0253 38.3957 41.9754L35.1039 41.976L35.1047 35.0328ZM34.0085 43.8511L37.1857 43.851L37.1857 47.7518L34.0081 47.7524L34.0085 43.8511ZM24.1663 59.1775C23.7946 59.3855 23.3696 59.4791 22.9449 59.4464C22.5201 59.4138 22.1145 59.2564 21.7788 58.994L19.5877 57.2852L21.7781 55.5774C22.1223 55.3117 22.538 55.1549 22.972 55.1271C23.4059 55.0992 23.8383 55.2017 24.2136 55.4212C24.5372 55.6131 24.8053 55.8858 24.9915 56.2126C25.1777 56.5395 25.2757 56.9092 25.2758 57.2853C25.2755 57.6708 25.1725 58.0491 24.9775 58.3816C24.7825 58.714 24.5025 58.9886 24.1662 59.1769L24.1663 59.1775ZM28.9571 64.3083L28.9572 49.6269L57.2364 49.6265C57.2464 49.6266 57.2564 49.6268 57.2665 49.6268L57.2839 49.6285L57.284 49.627C66.0904 49.6389 74.7417 51.9456 82.385 56.3198C82.499 56.3852 82.5937 56.4795 82.6596 56.5933C82.7255 56.707 82.7602 56.8362 82.7601 56.9676C82.7601 57.0991 82.7254 57.2282 82.6594 57.3419C82.5935 57.4556 82.4987 57.5499 82.3846 57.6152C74.7417 61.9894 66.0908 64.2962 57.2847 64.3083L57.2846 64.3069C57.2789 64.3072 57.2735 64.308 57.2678 64.3084C57.2575 64.3083 57.2473 64.3088 57.237 64.3087L28.9571 64.3083ZM34.009 66.1834L37.1861 66.1834L37.186 69.9157L34.0081 69.9158L34.009 66.1834ZM27.7032 77.5331C27.3314 77.7411 26.9065 77.8347 26.4817 77.802C26.057 77.7694 25.6513 77.612 25.3157 77.3496L23.1249 75.6416L25.3153 73.9336C25.6593 73.6682 26.0748 73.5116 26.5085 73.4837C26.9421 73.4559 27.3742 73.5582 27.7494 73.7775C28.0768 73.9718 28.3474 74.2489 28.5337 74.5809C28.72 74.913 28.8156 75.2883 28.8107 75.669C28.8059 76.0498 28.7009 76.4225 28.5062 76.7497C28.3116 77.077 28.0341 77.3472 27.7019 77.5331L27.7032 77.5331ZM30.6963 78.9019L30.6965 71.7905L33.2304 71.7904L33.2304 78.9019L30.6963 78.9019ZM35.1055 71.7905L38.3996 71.7904C39.3119 72.7492 39.8211 74.0217 39.8221 75.3451C39.8232 76.6685 39.316 77.9418 38.4052 78.902L35.1048 78.9011L35.1055 71.7905ZM34.0092 82.4687V80.777H37.1864L37.1864 82.4687L34.0092 82.4687ZM39.8077 82.4687L39.0613 82.4687L39.0613 80.7372C39.2051 80.6941 39.3364 80.6171 39.444 80.5125L39.5587 80.4013C40.2274 79.7529 40.7607 78.9782 41.1277 78.1222C41.4947 77.2662 41.6882 76.3458 41.6968 75.4144C41.7055 74.4831 41.5292 73.5592 41.1781 72.6965C40.8271 71.8338 40.3082 71.0494 39.6517 70.3887L39.4551 70.192C39.3457 70.0806 39.2096 69.9989 39.0599 69.9546L39.0599 66.1828H52.1323C50.8443 67.112 49.7949 68.3333 49.0701 69.7464C48.3453 71.1595 47.9657 72.7243 47.9625 74.3125C47.9624 76.4755 47.1031 78.55 45.5735 80.0796C44.044 81.6091 41.9695 82.4684 39.8064 82.4685L39.8077 82.4687ZM68.9811 75.1399L49.0944 78.1137C49.5872 76.907 49.8397 75.6157 49.8378 74.3122C49.843 72.2608 50.619 70.2862 52.012 68.7802C53.4049 67.2742 55.3131 66.3467 57.3579 66.1818C66.4659 66.1573 75.4112 63.7658 83.3162 59.2418C83.7169 59.0123 84.0498 58.6812 84.2814 58.2817C84.5129 57.8823 84.6349 57.4288 84.6349 56.9671C84.6349 56.5054 84.513 56.0519 84.2814 55.6525C84.0499 55.253 83.717 54.9218 83.3164 54.6923C75.4111 50.1684 66.4657 47.7769 57.3575 47.7524C55.3127 47.5874 53.4047 46.6598 52.0118 45.1538C50.6189 43.6477 49.843 41.6732 49.8378 39.6218C49.8398 38.3184 49.5873 37.0271 49.0945 35.8204L68.9798 38.795C78.0137 40.1329 86.7606 42.971 94.8591 47.192C92.7758 50.0243 91.6579 53.4512 91.6703 56.9671C91.658 60.4831 92.7759 63.9099 94.8591 66.7422C86.7608 70.9634 78.014 73.8016 68.9801 75.1395L68.9811 75.1399ZM96.5307 65.8464C94.5816 63.2981 93.532 60.1757 93.5462 56.9675C93.5317 53.7592 94.5809 50.6367 96.5298 48.0882C97.7848 48.7795 99.0249 49.5049 100.25 50.2646C97.2835 54.1607 97.2836 59.7735 100.25 63.6695C99.025 64.4293 97.7849 65.1548 96.5298 65.8461L96.5307 65.8464ZM107.78 58.8016L101.842 62.6605C99.2425 59.3792 99.2423 54.5548 101.841 51.274L107.779 55.133C108.085 55.3316 108.336 55.6034 108.51 55.9237C108.684 56.244 108.775 56.6026 108.775 56.967C108.775 57.3314 108.684 57.6901 108.51 58.0104C108.336 58.3307 108.085 58.6025 107.779 58.8011L107.78 58.8016Z" fill="#284268"/>
<path d="M59.3235 70.9444C59.3235 70.6958 59.2248 70.4573 59.049 70.2815C58.8731 70.1056 58.6347 70.0069 58.386 70.0068C58.1374 70.0068 57.8989 70.1056 57.7231 70.2814C57.5473 70.4572 57.4485 70.6957 57.4485 70.9443L57.4485 73.9754C57.4485 74.0985 57.4727 74.2204 57.5198 74.3341C57.5669 74.4479 57.636 74.5512 57.723 74.6383C57.8101 74.7254 57.9134 74.7944 58.0272 74.8416C58.1409 74.8887 58.2628 74.9129 58.3859 74.9129C58.5091 74.9129 58.631 74.8887 58.7447 74.8416C58.8585 74.7945 58.9618 74.7254 59.0489 74.6384C59.1359 74.5513 59.205 74.448 59.2521 74.3342C59.2992 74.2205 59.3235 74.0986 59.3235 73.9755L59.3235 70.9444Z" fill="#284268"/>
<path d="M63.5335 69.2602C63.5335 69.0116 63.4347 68.7731 63.2588 68.5973C63.083 68.4215 62.8445 68.3227 62.5959 68.3228C62.3472 68.3228 62.1088 68.4216 61.933 68.5974C61.7572 68.7732 61.6584 69.0117 61.6584 69.2603L61.6585 73.1336C61.6568 73.2578 61.6799 73.3811 61.7262 73.4963C61.7726 73.6115 61.8414 73.7163 61.9286 73.8047C62.0158 73.8931 62.1197 73.9633 62.2343 74.0112C62.3489 74.0591 62.4718 74.0838 62.596 74.0838C62.7202 74.0838 62.8431 74.0591 62.9577 74.0112C63.0723 73.9633 63.1762 73.8931 63.2634 73.8046C63.3506 73.7162 63.4194 73.6114 63.4657 73.4962C63.512 73.381 63.535 73.2577 63.5333 73.1335L63.5335 69.2602Z" fill="#284268"/>
<path d="M67.7434 67.5761C67.7465 67.451 67.7246 67.3265 67.6789 67.21C67.6332 67.0935 67.5647 66.9874 67.4773 66.8978C67.3899 66.8082 67.2855 66.737 67.1702 66.6884C67.0549 66.6398 66.931 66.6148 66.8059 66.6149C66.6807 66.6149 66.5569 66.64 66.4416 66.6886C66.3263 66.7373 66.2219 66.8085 66.1346 66.8982C66.0473 66.9878 65.9788 67.094 65.9332 67.2105C65.8876 67.3271 65.8657 67.4515 65.869 67.5766L65.869 72.4601C65.8723 72.7065 65.9726 72.9417 66.148 73.1148C66.3235 73.2878 66.56 73.3848 66.8064 73.3848C67.0529 73.3848 67.2894 73.2878 67.4648 73.1147C67.6403 72.9416 67.7405 72.7064 67.7438 72.46L67.7434 67.5761Z" fill="#284268"/>
<path d="M59.3235 39.9587C59.3245 39.835 59.301 39.7123 59.2543 39.5976C59.2076 39.483 59.1387 39.3788 59.0516 39.2909C58.9644 39.203 58.8608 39.1333 58.7465 39.0857C58.6323 39.0381 58.5097 39.0136 58.386 39.0136C58.2622 39.0136 58.1397 39.0381 58.0255 39.0857C57.9112 39.1333 57.8075 39.203 57.7204 39.2909C57.6332 39.3788 57.5643 39.483 57.5177 39.5976C57.471 39.7123 57.4475 39.835 57.4485 39.9587L57.4485 42.99C57.4506 43.2373 57.5502 43.4738 57.7259 43.648C57.9015 43.8221 58.1388 43.9198 58.3861 43.9198C58.6334 43.9197 58.8707 43.822 59.0463 43.6478C59.2218 43.4736 59.3215 43.2371 59.3235 42.9898L59.3235 39.9587Z" fill="#284268"/>
<path d="M63.5334 40.8007C63.5314 40.5534 63.4317 40.3169 63.2562 40.1428C63.0806 39.9686 62.8433 39.8709 62.5959 39.8709C62.3486 39.8709 62.1113 39.9686 61.9357 40.1428C61.7602 40.3169 61.6605 40.5534 61.6585 40.8007L61.6585 44.6741C61.6605 44.9214 61.7602 45.1579 61.9358 45.3321C62.1114 45.5062 62.3487 45.6039 62.5961 45.6039C62.8434 45.6039 63.0807 45.5061 63.2562 45.3319C63.4318 45.1577 63.5314 44.9212 63.5334 44.6739L63.5334 40.8007Z" fill="#284268"/>
<path d="M67.7433 41.4742C67.74 41.2278 67.6397 40.9926 67.4643 40.8196C67.2888 40.6465 67.0523 40.5495 66.8059 40.5495C66.5594 40.5495 66.3229 40.6466 66.1475 40.8197C65.972 40.9927 65.8718 41.2279 65.8685 41.4744L65.8685 46.3578C65.8668 46.482 65.8898 46.6053 65.9362 46.7205C65.9826 46.8357 66.0513 46.9405 66.1386 47.0289C66.2258 47.1173 66.3297 47.1875 66.4443 47.2354C66.5588 47.2833 66.6818 47.308 66.806 47.308C66.9302 47.308 67.0531 47.2833 67.1677 47.2354C67.2822 47.1875 67.3861 47.1173 67.4734 47.0288C67.5606 46.9404 67.6293 46.8356 67.6757 46.7204C67.722 46.6052 67.745 46.4819 67.7433 46.3577L67.7433 41.4742Z" fill="#284268"/>
</g>
<defs>
<clipPath id="clip0">
<rect x="57" y="0.431427" width="80" height="80" transform="rotate(45 57 0.431427)" fill="white"/>
</clipPath>
</defs>
</svg>
