<svg width="24" height="24" viewBox="0 0 24 24" fill="none" xmlns="http://www.w3.org/2000/svg">
<path d="M17.638 10.5C18.046 10.625 18.4345 10.7946 18.8034 11.0089C19.1723 11.2232 19.5586 11.5491 19.9622 11.9866C20.3659 12.4241 20.7109 12.9397 20.9974 13.5335C21.2839 14.1272 21.5226 14.8951 21.7135 15.8371C21.9045 16.779 22 17.8348 22 19.0045C22 20.3795 21.566 21.5558 20.6979 22.5335C19.8299 23.5112 18.7839 24 17.5599 24H6.4401C5.21615 24 4.17014 23.5112 3.30208 22.5335C2.43403 21.5558 2 20.3795 2 19.0045C2 17.8348 2.09549 16.779 2.28646 15.8371C2.47743 14.8951 2.71615 14.1272 3.0026 13.5335C3.28906 12.9397 3.63411 12.4241 4.03776 11.9866C4.44141 11.5491 4.82769 11.2232 5.19661 11.0089C5.56554 10.7946 5.95399 10.625 6.36198 10.5C5.67622 9.38393 5.33333 8.16964 5.33333 6.85714C5.33333 5.92857 5.50911 5.04241 5.86068 4.19866C6.21224 3.35491 6.6875 2.625 7.28646 2.00893C7.88542 1.39286 8.59505 0.904018 9.41536 0.542411C10.2357 0.180804 11.0972 0 12 0C12.9028 0 13.7643 0.180804 14.5846 0.542411C15.4049 0.904018 16.1146 1.39286 16.7135 2.00893C17.3125 2.625 17.7878 3.35491 18.1393 4.19866C18.4909 5.04241 18.6667 5.92857 18.6667 6.85714C18.6667 8.16964 18.3238 9.38393 17.638 10.5ZM12 1.71429C10.6198 1.71429 9.44141 2.21652 8.46484 3.22098C7.48828 4.22545 7 5.4375 7 6.85714C7 8.27679 7.48828 9.48884 8.46484 10.4933C9.44141 11.4978 10.6198 12 12 12C13.3802 12 14.5586 11.4978 15.5352 10.4933C16.5117 9.48884 17 8.27679 17 6.85714C17 5.4375 16.5117 4.22545 15.5352 3.22098C14.5586 2.21652 13.3802 1.71429 12 1.71429ZM17.5599 22.2857C18.3238 22.2857 18.977 21.9665 19.5195 21.3281C20.0621 20.6897 20.3333 19.9152 20.3333 19.0045C20.3333 16.8705 19.9926 15.1875 19.3112 13.9554C18.6298 12.7232 17.651 12.0759 16.375 12.0134C15.1163 13.1473 13.658 13.7143 12 13.7143C10.342 13.7143 8.88368 13.1473 7.625 12.0134C6.34896 12.0759 5.37023 12.7232 4.6888 13.9554C4.00738 15.1875 3.66667 16.8705 3.66667 19.0045C3.66667 19.9152 3.93793 20.6897 4.48047 21.3281C5.023 21.9665 5.67622 22.2857 6.4401 22.2857H17.5599Z" fill="white"/>
</svg>
