<svg width="25" height="19" viewBox="0 0 25 19" fill="none" xmlns="http://www.w3.org/2000/svg">
<path d="M24.4302 1.23598C24.602 0.52401 24.4302 0 23.6041 0H20.8706C20.1744 0 19.8542 0.449965 19.6825 0.951193C19.6825 0.951193 18.2902 5.1148 16.3224 7.81459C15.6866 8.59491 15.3942 8.84553 15.0461 8.84553C14.8744 8.84553 14.6099 8.59491 14.6099 7.88294V1.23598C14.6099 0.381616 14.415 0 13.8395 0H9.5419C9.10565 0 8.84575 0.398704 8.84575 0.768929C8.84575 1.57773 9.82964 1.76569 9.93174 4.04399V8.98792C9.93174 10.0701 9.77395 10.2695 9.42587 10.2695C8.49767 10.2695 6.24215 6.08878 4.90554 1.30433C4.63636 0.375921 4.37182 0 3.67103 0H0.937482C0.157794 0 0 0.449965 0 0.951193C0 1.83973 0.9282 6.25395 4.32077 12.0864C6.58094 16.0678 9.76467 18.2265 12.6607 18.2265C14.401 18.2265 14.6145 17.748 14.6145 16.9221C14.6145 13.1174 14.4567 12.7585 15.3292 12.7585C15.733 12.7585 16.4291 13.0091 18.0535 14.9286C19.9099 17.2069 20.2162 18.2265 21.2558 18.2265H23.9893C24.769 18.2265 25.1635 17.748 24.9361 16.8025C24.4163 14.8147 20.9031 10.7251 20.7453 10.4517C20.3415 9.81381 20.4575 9.52902 20.7453 8.95944C20.7499 8.95375 24.0868 3.18963 24.4302 1.23598Z" fill="white"/>
</svg>
