<svg width="25" height="24" viewBox="0 0 25 24" fill="none" xmlns="http://www.w3.org/2000/svg">
<path d="M21.2556 3.46768C18.9174 1.23047 15.8036 0 12.4944 0C5.66406 0 0.106027 5.3054 0.106027 11.8253C0.106027 13.908 0.675223 15.9428 1.75781 17.7379L0 23.8636L6.56808 22.2177C8.37612 23.1605 10.4129 23.6559 12.4888 23.6559H12.4944C19.3192 23.6559 25 18.3505 25 11.8306C25 8.67188 23.5938 5.7049 21.2556 3.46768ZM12.4944 21.6637C10.6417 21.6637 8.82812 21.1896 7.24888 20.2947L6.875 20.0817L2.97991 21.0565L4.01786 17.429L3.77232 17.0561C2.73996 15.4901 2.19866 13.6843 2.19866 11.8253C2.19866 6.40803 6.8192 1.99751 12.5 1.99751C15.2511 1.99751 17.8348 3.02024 19.7768 4.87926C21.7188 6.73828 22.9129 9.20455 22.9074 11.8306C22.9074 17.2532 18.1696 21.6637 12.4944 21.6637ZM18.1417 14.3022C17.8348 14.1531 16.3114 13.4393 16.0268 13.3434C15.7422 13.2422 15.5357 13.1942 15.3292 13.4925C15.1228 13.7908 14.5312 14.4513 14.3471 14.6538C14.1685 14.8509 13.9844 14.8775 13.6775 14.7283C11.8583 13.8601 10.6641 13.1783 9.46429 11.2127C9.14621 10.6907 9.78237 10.728 10.3739 9.59872C10.4743 9.40163 10.4241 9.23118 10.346 9.08203C10.2679 8.93288 9.64844 7.47869 9.39174 6.88743C9.14062 6.31214 8.88393 6.39205 8.6942 6.38139C8.51562 6.37074 8.30915 6.37074 8.10268 6.37074C7.8962 6.37074 7.56138 6.44531 7.27679 6.73828C6.99219 7.03658 6.1942 7.75035 6.1942 9.20455C6.1942 10.6587 7.30469 12.065 7.45536 12.2621C7.61161 12.4592 9.63728 15.4421 12.7455 16.7259C14.7098 17.5355 15.4799 17.6048 16.4621 17.4663C17.0592 17.381 18.2924 16.7525 18.5491 16.06C18.8058 15.3675 18.8058 14.7763 18.7277 14.6538C18.6551 14.5206 18.4487 14.446 18.1417 14.3022Z" fill="white"/>
</svg>
