<svg width="25" height="24" viewBox="0 0 25 24" fill="none" xmlns="http://www.w3.org/2000/svg">
<path d="M12.5028 5.81219C8.95566 5.81219 6.09453 8.54327 6.09453 11.9292C6.09453 15.3151 8.95566 18.0461 12.5028 18.0461C16.0499 18.0461 18.911 15.3151 18.911 11.9292C18.911 8.54327 16.0499 5.81219 12.5028 5.81219ZM12.5028 15.906C10.2105 15.906 8.33659 14.1226 8.33659 11.9292C8.33659 9.73579 10.205 7.95234 12.5028 7.95234C14.8006 7.95234 16.669 9.73579 16.669 11.9292C16.669 14.1226 14.795 15.906 12.5028 15.906ZM20.6679 5.56198C20.6679 6.35522 19.9986 6.98874 19.1732 6.98874C18.3422 6.98874 17.6785 6.34989 17.6785 5.56198C17.6785 4.77406 18.3477 4.13522 19.1732 4.13522C19.9986 4.13522 20.6679 4.77406 20.6679 5.56198ZM24.9122 7.01004C24.8173 5.09881 24.36 3.40586 22.8932 2.01104C21.432 0.616223 19.6584 0.179676 17.6562 0.0838489C15.5926 -0.0279496 9.40742 -0.0279496 7.34384 0.0838489C5.34718 0.174352 3.57362 0.610899 2.1068 2.00572C0.639989 3.40054 0.188232 5.09349 0.0878416 7.00471C-0.0292805 8.97449 -0.0292805 14.8785 0.0878416 16.8483C0.182655 18.7595 0.639989 20.4525 2.1068 21.8473C3.57362 23.2421 5.34161 23.6787 7.34384 23.7745C9.40742 23.8863 15.5926 23.8863 17.6562 23.7745C19.6584 23.684 21.432 23.2474 22.8932 21.8473C24.3544 20.4525 24.8118 18.7595 24.9122 16.8483C25.0293 14.8785 25.0293 8.97982 24.9122 7.01004ZM22.2462 18.9618C21.8112 20.0053 20.969 20.8092 19.8703 21.2297C18.225 21.8526 14.321 21.7089 12.5028 21.7089C10.6846 21.7089 6.77496 21.8473 5.13525 21.2297C4.04211 20.8145 3.19994 20.0106 2.75934 18.9618C2.1068 17.3913 2.25739 13.6647 2.25739 11.9292C2.25739 10.1936 2.11238 6.46169 2.75934 4.89651C3.19437 3.85306 4.03653 3.04917 5.13525 2.6286C6.78054 2.00572 10.6846 2.14946 12.5028 2.14946C14.321 2.14946 18.2306 2.01104 19.8703 2.6286C20.9635 3.04385 21.8056 3.84773 22.2462 4.89651C22.8988 6.46701 22.7482 10.1936 22.7482 11.9292C22.7482 13.6647 22.8988 17.3967 22.2462 18.9618Z" fill="white"/>
</svg>
